<svg width="12" height="12" viewBox="0 0 12 12" fill="none" xmlns="http://www.w3.org/2000/svg">
<circle cx="6" cy="6" r="6" fill="#FB2E86"/>
<path d="M8.62291 4.57764C8.61968 4.33528 8.57431 4.09533 8.48883 3.86852C8.4147 3.67721 8.30148 3.50347 8.1564 3.35839C8.01132 3.21331 7.83758 3.10009 7.64627 3.02596C7.42237 2.94192 7.18584 2.89647 6.94675 2.89156C6.63891 2.8778 6.54131 2.87396 5.75987 2.87396C4.97843 2.87396 4.87827 2.87396 4.57267 2.89156C4.33368 2.89651 4.09726 2.94195 3.87347 3.02596C3.68212 3.10004 3.50835 3.21324 3.36327 3.35832C3.21818 3.50341 3.10498 3.67718 3.03091 3.86852C2.94669 4.09224 2.90135 4.32872 2.89683 4.56772C2.88307 4.87588 2.87891 4.97348 2.87891 5.75492C2.87891 6.53636 2.87891 6.6362 2.89683 6.94212C2.90163 7.18148 2.94675 7.41764 3.03091 7.64196C3.10511 7.83325 3.21839 8.00695 3.36353 8.15197C3.50866 8.29699 3.68245 8.41015 3.87379 8.4842C4.09696 8.57163 4.33343 8.62032 4.57299 8.6282C4.88115 8.64196 4.97875 8.64612 5.76019 8.64612C6.54163 8.64612 6.64179 8.64612 6.94739 8.6282C7.18647 8.62349 7.42302 8.57815 7.6469 8.49412C7.83817 8.41991 8.01187 8.30666 8.15693 8.16159C8.302 8.01652 8.41525 7.84282 8.48947 7.65156C8.57363 7.42756 8.61874 7.1914 8.62355 6.95172C8.6373 6.64388 8.64146 6.54628 8.64146 5.76452C8.64082 4.98308 8.64083 4.88388 8.62291 4.57764ZM5.75795 7.23268C4.94067 7.23268 4.27859 6.5706 4.27859 5.75332C4.27859 4.93604 4.94067 4.27396 5.75795 4.27396C6.1503 4.27396 6.52658 4.42982 6.80401 4.70726C7.08144 4.98469 7.23731 5.36097 7.23731 5.75332C7.23731 6.14567 7.08144 6.52195 6.80401 6.79939C6.52658 7.07682 6.1503 7.23268 5.75795 7.23268ZM7.29619 4.5642C7.10515 4.5642 6.95123 4.40996 6.95123 4.21924C6.95123 4.17396 6.96014 4.12913 6.97747 4.08729C6.9948 4.04546 7.0202 4.00745 7.05222 3.97543C7.08423 3.94341 7.12224 3.91802 7.16408 3.90069C7.20591 3.88336 7.25075 3.87444 7.29603 3.87444C7.34131 3.87444 7.38614 3.88336 7.42797 3.90069C7.46981 3.91802 7.50782 3.94341 7.53984 3.97543C7.57185 4.00745 7.59725 4.04546 7.61458 4.08729C7.63191 4.12913 7.64083 4.17396 7.64083 4.21924C7.64083 4.40996 7.48659 4.5642 7.29619 4.5642Z" fill="white"/>
<path d="M5.75784 6.71416C6.28856 6.71416 6.7188 6.28392 6.7188 5.7532C6.7188 5.22247 6.28856 4.79224 5.75784 4.79224C5.22711 4.79224 4.79688 5.22247 4.79688 5.7532C4.79688 6.28392 5.22711 6.71416 5.75784 6.71416Z" fill="white"/>
</svg>
