<svg width="12" height="12" viewBox="0 0 12 12" fill="none" xmlns="http://www.w3.org/2000/svg">
<circle cx="6" cy="6" r="6" fill="#151875"/>
<g clip-path="url(#clip0_108_8634)">
<path d="M9.48565 3.49972C9.21845 3.61812 8.93141 3.69812 8.62965 3.73428C8.94101 3.54797 9.17395 3.25475 9.28501 2.90932C8.99248 3.08307 8.67232 3.20538 8.33845 3.27092C8.11393 3.03119 7.81655 2.8723 7.49247 2.81891C7.1684 2.76552 6.83576 2.82061 6.5462 2.97564C6.25665 3.13067 6.02637 3.37695 5.89114 3.67626C5.7559 3.97557 5.72326 4.31116 5.79829 4.63092C5.20555 4.60116 4.62569 4.44709 4.09634 4.17873C3.567 3.91036 3.1 3.53369 2.72565 3.07316C2.59765 3.29396 2.52405 3.54996 2.52405 3.8226C2.5239 4.06804 2.58435 4.30972 2.70001 4.52619C2.81567 4.74267 2.98298 4.92725 3.18709 5.06356C2.95037 5.05603 2.71889 4.99206 2.51189 4.877V4.8962C2.51186 5.24043 2.63094 5.57408 2.84891 5.84052C3.06687 6.10695 3.37031 6.28977 3.70773 6.35796C3.48814 6.41739 3.25791 6.42614 3.03445 6.38356C3.12965 6.67975 3.31509 6.93877 3.5648 7.12433C3.81452 7.3099 4.11602 7.41273 4.42709 7.41844C3.89903 7.83297 3.24689 8.05783 2.57557 8.05684C2.45665 8.05687 2.33783 8.04992 2.21973 8.03604C2.90116 8.47417 3.6944 8.7067 4.50453 8.7058C7.24693 8.7058 8.74613 6.43444 8.74613 4.46452C8.74613 4.40052 8.74453 4.33588 8.74165 4.27188C9.03326 4.06099 9.28498 3.79984 9.48501 3.50068L9.48565 3.49972Z" fill="white"/>
</g>
<defs>
<clipPath id="clip0_108_8634">
<rect width="7.68" height="7.68" fill="white" transform="translate(1.91992 1.91998)"/>
</clipPath>
</defs>
</svg>
