<svg width="16" height="14" viewBox="0 0 16 14" fill="none" xmlns="http://www.w3.org/2000/svg">
<path d="M14.1202 1.45748C13.3239 0.660987 12.2682 0.176727 11.1451 0.0927683C10.022 0.00880944 8.90605 0.330729 8.00021 0.999982C7.04595 0.29021 5.8582 -0.0316341 4.67615 0.0992605C3.49409 0.230155 2.40554 0.804066 1.62969 1.70542C0.853837 2.60678 0.448323 3.76862 0.494807 4.95699C0.541292 6.14536 1.03632 7.27198 1.88021 8.10998L7.46771 13.6975C7.53743 13.7678 7.62038 13.8236 7.71177 13.8617C7.80317 13.8997 7.9012 13.9193 8.00021 13.9193C8.09922 13.9193 8.19725 13.8997 8.28864 13.8617C8.38003 13.8236 8.46299 13.7678 8.53271 13.6975L14.1202 8.10998C14.5572 7.67327 14.9039 7.15474 15.1404 6.58401C15.3769 6.01327 15.4986 5.40153 15.4986 4.78373C15.4986 4.16593 15.3769 3.55419 15.1404 2.98346C14.9039 2.41272 14.5572 1.89419 14.1202 1.45748ZM13.0627 7.05248L8.00021 12.1075L2.93771 7.05248C2.49159 6.60451 2.18769 6.03477 2.06413 5.41474C1.94057 4.79471 2.00285 4.152 2.24317 3.56723C2.48349 2.98246 2.89113 2.48168 3.41497 2.1277C3.9388 1.77372 4.5555 1.58231 5.18771 1.57748C6.03229 1.57955 6.84153 1.91673 7.43771 2.51498C7.50743 2.58528 7.59038 2.64107 7.68177 2.67915C7.77317 2.71723 7.8712 2.73683 7.97021 2.73683C8.06922 2.73683 8.16725 2.71723 8.25864 2.67915C8.35003 2.64107 8.43299 2.58528 8.50271 2.51498C9.11645 1.98314 9.90933 1.70434 10.7209 1.735C11.5324 1.76566 12.302 2.10349 12.8738 2.68012C13.4457 3.25675 13.7771 4.02911 13.8011 4.84087C13.825 5.65264 13.5396 6.44317 13.0027 7.05248H13.0627Z" fill="#535399"/>
</svg>
