<svg width="12" height="12" viewBox="0 0 12 12" fill="none" xmlns="http://www.w3.org/2000/svg">
<g clip-path="url(#clip0_1164_2856)">
<path d="M1.875 8.625H0.375C0.275544 8.625 0.180161 8.66451 0.109835 8.73483C0.0395088 8.80516 0 8.90054 0 9L0 10.5C0 10.5995 0.0395088 10.6948 0.109835 10.7652C0.180161 10.8355 0.275544 10.875 0.375 10.875H1.875C1.97446 10.875 2.06984 10.8355 2.14016 10.7652C2.21049 10.6948 2.25 10.5995 2.25 10.5V9C2.25 8.90054 2.21049 8.80516 2.14016 8.73483C2.06984 8.66451 1.97446 8.625 1.875 8.625ZM1.875 1.125H0.375C0.275544 1.125 0.180161 1.16451 0.109835 1.23483C0.0395088 1.30516 0 1.40054 0 1.5L0 3C0 3.09946 0.0395088 3.19484 0.109835 3.26516C0.180161 3.33549 0.275544 3.375 0.375 3.375H1.875C1.97446 3.375 2.06984 3.33549 2.14016 3.26516C2.21049 3.19484 2.25 3.09946 2.25 3V1.5C2.25 1.40054 2.21049 1.30516 2.14016 1.23483C2.06984 1.16451 1.97446 1.125 1.875 1.125ZM1.875 4.875H0.375C0.275544 4.875 0.180161 4.91451 0.109835 4.98484C0.0395088 5.05516 0 5.15054 0 5.25L0 6.75C0 6.84946 0.0395088 6.94484 0.109835 7.01517C0.180161 7.08549 0.275544 7.125 0.375 7.125H1.875C1.97446 7.125 2.06984 7.08549 2.14016 7.01517C2.21049 6.94484 2.25 6.84946 2.25 6.75V5.25C2.25 5.15054 2.21049 5.05516 2.14016 4.98484C2.06984 4.91451 1.97446 4.875 1.875 4.875ZM11.625 9H4.125C4.02554 9 3.93016 9.03951 3.85984 9.10983C3.78951 9.18016 3.75 9.27554 3.75 9.375V10.125C3.75 10.2245 3.78951 10.3198 3.85984 10.3902C3.93016 10.4605 4.02554 10.5 4.125 10.5H11.625C11.7245 10.5 11.8198 10.4605 11.8902 10.3902C11.9605 10.3198 12 10.2245 12 10.125V9.375C12 9.27554 11.9605 9.18016 11.8902 9.10983C11.8198 9.03951 11.7245 9 11.625 9ZM11.625 1.5H4.125C4.02554 1.5 3.93016 1.53951 3.85984 1.60984C3.78951 1.68016 3.75 1.77554 3.75 1.875V2.625C3.75 2.72446 3.78951 2.81984 3.85984 2.89016C3.93016 2.96049 4.02554 3 4.125 3H11.625C11.7245 3 11.8198 2.96049 11.8902 2.89016C11.9605 2.81984 12 2.72446 12 2.625V1.875C12 1.77554 11.9605 1.68016 11.8902 1.60984C11.8198 1.53951 11.7245 1.5 11.625 1.5ZM11.625 5.25H4.125C4.02554 5.25 3.93016 5.28951 3.85984 5.35984C3.78951 5.43016 3.75 5.52554 3.75 5.625V6.375C3.75 6.47446 3.78951 6.56984 3.85984 6.64017C3.93016 6.71049 4.02554 6.75 4.125 6.75H11.625C11.7245 6.75 11.8198 6.71049 11.8902 6.64017C11.9605 6.56984 12 6.47446 12 6.375V5.625C12 5.52554 11.9605 5.43016 11.8902 5.35984C11.8198 5.28951 11.7245 5.25 11.625 5.25Z" fill="#151875"/>
</g>
<defs>
<clipPath id="clip0_1164_2856">
<rect width="12" height="12" fill="white"/>
</clipPath>
</defs>
</svg>
