<svg width="14" height="14" viewBox="0 0 14 14" fill="none" xmlns="http://www.w3.org/2000/svg">
<path d="M12.4401 2.07329C11.7323 1.3653 10.7939 0.934841 9.79559 0.860211C8.79726 0.785581 7.8053 1.07173 7.0001 1.66662C6.15187 1.03572 5.0961 0.749631 4.04538 0.865982C2.99467 0.982333 2.02706 1.49248 1.33742 2.29368C0.647773 3.09488 0.287317 4.12764 0.328636 5.18397C0.369956 6.2403 0.809981 7.24174 1.5601 7.98662L6.52677 12.9533C6.58874 13.0158 6.66248 13.0654 6.74372 13.0992C6.82496 13.1331 6.91209 13.1505 7.0001 13.1505C7.08811 13.1505 7.17525 13.1331 7.25649 13.0992C7.33773 13.0654 7.41146 13.0158 7.47344 12.9533L12.4401 7.98662C12.8285 7.59844 13.1367 7.13752 13.3469 6.6302C13.5571 6.12288 13.6654 5.57911 13.6654 5.02996C13.6654 4.4808 13.5571 3.93703 13.3469 3.42971C13.1367 2.92239 12.8285 2.46147 12.4401 2.07329ZM11.5001 7.04662L7.0001 11.54L2.5001 7.04662C2.10355 6.64842 1.83342 6.14199 1.72359 5.59085C1.61376 5.03971 1.66912 4.46841 1.88274 3.94862C2.09635 3.42883 2.4587 2.98369 2.92433 2.66904C3.38996 2.35439 3.93814 2.18425 4.5001 2.17996C5.25084 2.1818 5.97017 2.48151 6.5001 3.01329C6.56208 3.07578 6.63581 3.12537 6.71705 3.15922C6.79829 3.19306 6.88543 3.21049 6.97344 3.21049C7.06144 3.21049 7.14858 3.19306 7.22982 3.15922C7.31106 3.12537 7.38479 3.07578 7.44677 3.01329C7.99232 2.54055 8.6971 2.29272 9.41846 2.31997C10.1398 2.34723 10.8239 2.64752 11.3322 3.16008C11.8405 3.67264 12.1352 4.35918 12.1564 5.08075C12.1777 5.80232 11.924 6.50502 11.4468 7.04662H11.5001Z" fill="white"/>
</svg>
