<svg width="18" height="18" viewBox="0 0 18 18" fill="none" xmlns="http://www.w3.org/2000/svg">
<path d="M0.5 1.25C0.5 1.05109 0.579018 0.860322 0.71967 0.71967C0.860322 0.579018 1.05109 0.5 1.25 0.5H1.808C2.758 0.5 3.328 1.139 3.653 1.733C3.87 2.129 4.027 2.588 4.15 3.004C4.18327 3.00137 4.21663 3.00004 4.25 3H16.748C17.578 3 18.178 3.794 17.95 4.593L16.122 11.002C15.9581 11.5769 15.6114 12.0827 15.1343 12.4428C14.6572 12.803 14.0758 12.9979 13.478 12.998H7.53C6.92749 12.998 6.34165 12.8002 5.86252 12.4349C5.3834 12.0696 5.0375 11.557 4.878 10.976L4.118 8.204L2.858 3.956L2.857 3.948C2.701 3.381 2.555 2.85 2.337 2.454C2.128 2.069 1.96 2 1.809 2H1.25C1.05109 2 0.860322 1.92098 0.71967 1.78033C0.579018 1.63968 0.5 1.44891 0.5 1.25ZM5.573 7.84L6.324 10.579C6.474 11.121 6.967 11.498 7.53 11.498H13.478C13.7497 11.498 14.014 11.4095 14.2309 11.2458C14.4478 11.0821 14.6054 10.8523 14.68 10.591L16.417 4.5H4.585L5.559 7.787L5.573 7.84Z" fill="white"/>
<path d="M9 16C9 16.5304 8.78929 17.0391 8.41421 17.4142C8.03914 17.7893 7.53043 18 7 18C6.46957 18 5.96086 17.7893 5.58579 17.4142C5.21071 17.0391 5 16.5304 5 16C5 15.4696 5.21071 14.9609 5.58579 14.5858C5.96086 14.2107 6.46957 14 7 14C7.53043 14 8.03914 14.2107 8.41421 14.5858C8.78929 14.9609 9 15.4696 9 16ZM7.5 16C7.5 15.8674 7.44732 15.7402 7.35355 15.6464C7.25979 15.5527 7.13261 15.5 7 15.5C6.86739 15.5 6.74021 15.5527 6.64645 15.6464C6.55268 15.7402 6.5 15.8674 6.5 16C6.5 16.1326 6.55268 16.2598 6.64645 16.3536C6.74021 16.4473 6.86739 16.5 7 16.5C7.13261 16.5 7.25979 16.4473 7.35355 16.3536C7.44732 16.2598 7.5 16.1326 7.5 16Z" fill="white"/>
<path d="M16 16C16 16.5304 15.7893 17.0391 15.4142 17.4142C15.0391 17.7893 14.5304 18 14 18C13.4696 18 12.9609 17.7893 12.5858 17.4142C12.2107 17.0391 12 16.5304 12 16C12 15.4696 12.2107 14.9609 12.5858 14.5858C12.9609 14.2107 13.4696 14 14 14C14.5304 14 15.0391 14.2107 15.4142 14.5858C15.7893 14.9609 16 15.4696 16 16ZM14.5 16C14.5 15.8674 14.4473 15.7402 14.3536 15.6464C14.2598 15.5527 14.1326 15.5 14 15.5C13.8674 15.5 13.7402 15.5527 13.6464 15.6464C13.5527 15.7402 13.5 15.8674 13.5 16C13.5 16.1326 13.5527 16.2598 13.6464 16.3536C13.7402 16.4473 13.8674 16.5 14 16.5C14.1326 16.5 14.2598 16.4473 14.3536 16.3536C14.4473 16.2598 14.5 16.1326 14.5 16Z" fill="white"/>
</svg>
