<svg width="723" height="692" viewBox="0 0 723 692" fill="none" xmlns="http://www.w3.org/2000/svg">
<path d="M620.944 463.961C596.909 500.42 555.7 521.85 512.032 521.85H149.591C76.741 521.85 35.89 436.674 83.136 388.712C130.381 340.749 88.6504 299.785 161.524 261.325C232.124 224.063 256.228 303.488 321.266 251.518C386.306 199.55 480.995 204.452 501.799 257.402C522.602 310.352 517.701 328.986 561.825 340.752C605.95 352.516 649.094 419.194 622.619 461.358C622.068 462.236 621.509 463.104 620.944 463.961Z" fill="#CBD5FC"/>
<path d="M604.831 478.742C566.649 481.98 540.91 553.55 445.461 510.532C445.461 510.532 455.942 479.289 502.893 459.813C549.842 440.338 604.831 478.742 604.831 478.742Z" fill="#C8DDF5"/>
<path d="M458.496 505.173C468.461 499.992 478.797 495.525 489.353 491.64C491.979 490.631 494.642 489.723 497.314 488.838C499.974 487.917 502.668 487.101 505.358 486.269C508.038 485.405 510.767 484.704 513.486 483.966C514.846 483.604 516.202 483.22 517.569 482.877L521.679 481.891L525.8 480.946L529.95 480.129L534.101 479.314C535.485 479.049 536.882 478.843 538.276 478.63C541.068 478.219 543.848 477.75 546.66 477.482C549.468 477.191 552.26 476.785 555.085 476.68C566.329 475.864 577.699 476.048 588.786 477.925C577.555 477.653 566.42 478.318 555.377 479.679L553.304 479.914L551.242 480.231L547.113 480.834C544.357 481.187 541.627 481.74 538.891 482.235C537.526 482.502 536.149 482.694 534.786 482.978L530.701 483.825L526.617 484.675L522.557 485.648L518.488 486.578C517.134 486.902 515.791 487.269 514.442 487.611L510.397 488.657C509.047 488.999 507.718 489.417 506.37 489.771C503.682 490.508 500.99 491.229 498.327 492.058C495.66 492.869 492.975 493.629 490.318 494.482C479.659 497.802 469.095 501.458 458.496 505.173Z" fill="#ACBED3"/>
<path d="M609.504 356.944C562.916 390.246 584.467 501.848 428.996 519.421C428.996 519.421 418.617 471.276 464.08 410.423C509.543 349.569 609.504 356.944 609.504 356.944Z" fill="#6C83DC"/>
<path d="M439.34 505.974C446.121 491.284 454.49 477.312 463.906 464.087C473.294 450.834 483.821 438.363 495.286 426.813C506.766 415.286 519.204 404.654 532.664 395.477C546.082 386.303 560.558 378.409 575.999 373.49C561.668 381.005 548.389 389.937 535.776 399.733C523.211 409.583 511.329 420.266 500.073 431.58C488.807 442.892 478.192 454.848 468.088 467.263C458.017 479.712 448.55 492.671 439.34 505.974Z" fill="#C8DDF5"/>
<path d="M106.941 468.794C144.801 474.714 165.435 547.919 263.677 511.728C263.677 511.728 255.422 479.824 209.96 457.092C164.497 434.359 106.941 468.794 106.941 468.794Z" fill="#C8DDF5"/>
<path d="M251.053 505.465C240.742 501.014 230.461 496.623 220.063 492.559C217.472 491.522 214.848 490.575 212.245 489.578C209.647 488.563 207.01 487.655 204.383 486.731C203.063 486.283 201.767 485.772 200.444 485.336L196.483 484.008C195.162 483.571 193.847 483.111 192.52 482.692L188.527 481.477L184.545 480.221L180.53 479.086L176.515 477.952C175.176 477.573 173.816 477.285 172.474 476.922C169.779 476.236 167.095 475.492 164.37 474.946L160.294 474.054L158.258 473.592L156.209 473.213C145.288 471.076 134.227 469.629 123.006 469.109C134.197 468.02 145.552 468.635 156.711 470.241C159.521 470.545 162.278 471.145 165.058 471.635C167.844 472.101 170.584 472.764 173.34 473.371C174.716 473.68 176.094 473.984 177.457 474.346L181.539 475.452L185.622 476.559L189.666 477.791L193.697 479.065C195.036 479.502 196.361 479.982 197.693 480.438C200.354 481.365 203.025 482.259 205.639 483.308C208.264 484.328 210.894 485.331 213.482 486.438C216.084 487.508 218.677 488.601 221.226 489.793C231.482 494.412 241.478 499.595 251.053 505.465Z" fill="#ACBED3"/>
<path d="M132.107 351.819C174.059 386.519 146.149 490.912 292.412 517.985C292.412 517.985 305.478 473.024 266.438 412.27C227.398 351.516 132.107 351.819 132.107 351.819Z" fill="#6C83DC"/>
<path d="M283.504 504.542C275.599 491.338 267.46 478.439 258.724 465.977C249.954 453.545 240.685 441.508 230.764 430.033C220.852 418.555 210.312 407.629 199.078 397.431C187.795 387.284 175.831 377.9 162.775 369.753C177.12 375.39 190.351 383.821 202.482 393.406C214.657 402.995 225.754 413.909 235.874 425.617C245.978 437.342 255.123 449.887 263.12 463.102C271.147 476.292 278.119 490.125 283.504 504.542Z" fill="#C8DDF5"/>
<path d="M378.819 449.003C373.567 455.24 368.808 465.579 365.854 467.221C362.9 468.862 357.919 469.432 353.211 484.584C348.504 499.734 372.268 497.66 372.268 497.66C372.268 497.66 382.43 491.824 386.533 477.725L396.708 468.698L378.819 449.003Z" fill="#FFA498"/>
<path d="M360.437 495.999C360.437 495.999 368.129 493.494 374.653 486.604C381.202 479.687 382.046 467.38 382.046 467.38L385.182 473.241L391.456 466.536L394.48 466.244L396.71 468.698L386.534 477.725C382.431 491.824 372.27 497.661 372.27 497.661C372.27 497.661 365.719 498.228 360.178 496.578C360.32 496.22 360.437 495.999 360.437 495.999Z" fill="#C57E75"/>
<path d="M414.448 394.738C407.169 400.06 402.826 403.921 399.207 411.159C395.587 418.398 372.905 444.404 371.458 446.724C370.009 449.043 384.205 473.655 395.566 479.687C395.566 479.687 412.719 459.9 422.612 452.421C432.505 444.94 429.128 418.398 424.543 409.47C419.958 400.542 414.448 394.738 414.448 394.738Z" fill="#DC466F"/>
<path d="M414.183 442.63V427.856C414.183 427.856 416.108 427.085 417.611 432.071C418.21 434.066 418.165 436.164 417.897 437.969L428.941 429.664C429.397 438.961 427.905 448.419 422.612 452.421C412.719 459.9 395.567 479.687 395.567 479.687C392.635 478.131 389.516 475.334 386.525 472.006C393.51 465.052 406.761 451.628 414.183 442.63Z" fill="#D12050"/>
<path d="M343.618 491.824C341.729 492.414 340.334 493.317 340.334 495.696C340.334 498.076 340.744 501.851 341.647 503.327C342.55 504.805 347.21 505.69 347.21 505.69C347.21 505.69 346.899 495.86 345.914 494.055C344.929 492.249 343.618 491.824 343.618 491.824Z" fill="#FFA498"/>
<path d="M341.646 503.328C341.393 502.913 341.181 502.306 341.004 501.609C342.015 502.603 342.355 502.611 343.593 502.741L347.132 503.845C347.186 504.951 347.21 505.691 347.21 505.691C347.21 505.691 342.549 504.805 341.646 503.328Z" fill="#C57E75"/>
<path d="M348.13 488.229C345.832 488.475 343.534 490.199 343.534 492.578C343.534 494.957 342.715 501.605 343.534 502.672C344.356 503.738 348.377 506.774 349.771 507.021C351.166 507.267 353.536 506.856 353.212 506.117C352.89 505.38 348.13 488.229 348.13 488.229Z" fill="#FFA498"/>
<path d="M343.186 500.885C344.927 502.852 349.382 502.675 349.382 502.675C349.382 502.675 351.34 504.766 351.582 505.438C351.727 505.843 352.529 506.377 352.638 506.791C351.903 507.071 350.645 507.176 349.771 507.022C348.402 506.779 344.519 503.861 343.594 502.742L343.186 500.89V500.885Z" fill="#C57E75"/>
<path d="M356.74 484.303C349.69 484.701 348.377 485.357 348.131 488.229C347.884 491.101 348.049 499.471 348.95 501.606C349.854 503.738 350.346 505.626 351.495 506.774C352.644 507.923 354.363 507.928 354.363 507.928C354.363 507.928 358.224 502.262 358.388 497.502C358.552 492.743 356.74 484.303 356.74 484.303Z" fill="#FFA498"/>
<path d="M352.685 503.212C353.043 501.264 353.836 499.186 353.936 492.663C353.974 490.213 356.246 503.009 355.232 506.521C354.726 507.393 354.363 507.928 354.363 507.928C354.363 507.928 352.645 507.923 351.496 506.774C350.347 505.625 349.855 503.737 348.951 501.605C348.893 501.465 348.838 501.298 348.785 501.11C349.245 502.307 350.706 503.092 352.685 503.212Z" fill="#C57E75"/>
<path d="M372.173 498.733C371.73 502.654 366.593 504.066 366.018 506.035C365.445 508.005 365.854 509.811 364.87 510.302C363.885 510.796 359.782 508.498 359.947 505.873C359.947 505.873 358.879 508.087 356.499 508.498C354.12 508.908 353.545 507.17 353.956 504.551C354.366 501.933 354.285 500.537 354.202 497.42C354.12 494.301 353.381 491.43 354.776 487.982C356.171 484.537 358.059 481.5 361.834 482.075C365.608 482.649 367.906 487.408 369.957 489.05C372.009 490.69 372.665 494.384 372.173 498.733Z" fill="#FFA498"/>
<path d="M359.947 505.872C360.177 500.885 360.437 496.803 360.437 495.999C360.437 495.194 360.177 489.901 362.059 489.58C362.344 489.531 366.482 492.153 366.562 493.922C366.643 495.692 366.562 498.87 365.276 499.774C363.989 500.68 359.947 505.872 359.947 505.872Z" fill="#C57E75"/>
<path d="M530.952 405.368C523.472 395.878 520.898 394.912 513.177 390.409C505.455 385.904 476.178 374.483 470.145 373.035C464.114 371.587 439.784 382.928 431.8 386.547C423.818 390.167 413.659 393.728 411.929 397.256C406.134 409.063 417.61 425.798 417.67 460.867C417.702 479.233 421.887 520.536 421.887 520.536C421.887 520.536 513.82 520.708 515.107 518.776C516.394 516.846 519.612 450.893 521.22 437.38C522.829 423.868 530.952 405.368 530.952 405.368Z" fill="#DC466F"/>
<path d="M412.267 415.744C411.578 413.523 411.169 411.262 410.824 408.993C410.51 406.718 410.262 404.435 410.296 402.11C410.987 404.33 411.397 406.591 411.738 408.861C412.052 411.136 412.299 413.419 412.267 415.744Z" fill="#D12050"/>
<path d="M446.645 401.93C443.093 400.603 434.678 402.911 433.139 403.446C431.601 403.981 434.044 397.406 434.949 396.592C435.853 395.777 437.302 393.881 440.077 394.739C442.852 395.597 445.184 398.773 445.586 399.819C445.988 400.864 446.645 401.93 446.645 401.93Z" fill="#D12050"/>
<path d="M476.24 407.419C474.974 407.359 467.583 403.96 465.815 403.116C464.045 402.271 456.029 401.877 450.646 403.381C450.646 403.381 461.009 396.38 467.041 396.44C473.073 396.501 475.366 398.672 475.848 400.603C476.331 402.533 476.24 407.419 476.24 407.419Z" fill="#D12050"/>
<path d="M436.72 505.747C437.707 504.781 497.747 506.713 498.954 500.439C500.159 494.166 500.99 482.755 500.99 482.755C493.762 486.617 483.269 485.009 483.269 485.009C490.266 482.724 500.401 471.242 500.883 467.864C502.371 457.457 496.81 428.766 496.81 428.766L500.883 420.57L505.65 417.915C505.65 417.915 514.687 422.416 522.414 430.695C521.893 432.987 521.475 435.245 521.221 437.38C519.705 450.12 516.758 509.463 515.348 517.829C496.752 518.515 463.041 519.749 440.485 520.524C429.556 520.55 421.887 520.536 421.887 520.536C421.887 520.536 421.747 515.103 421.418 507.312C427.71 506.945 436.109 506.345 436.72 505.747Z" fill="#D12050"/>
<path d="M448.912 403.678C455.39 402.898 465.802 397.284 469.905 399.215C474.007 401.145 474.971 406.091 475.816 406.936C476.66 407.78 480.28 403.557 480.28 393.183C480.28 382.806 480.598 372.182 472.959 370.739C465.32 369.294 445.534 376.774 441.552 379.79C437.572 382.806 435.882 385.862 434.797 388.798C433.71 391.734 430.815 403.557 432.142 403.678C433.469 403.8 437.209 396.078 439.984 395.836C442.759 395.595 447.158 403.89 448.912 403.678Z" fill="#DC466F"/>
<path d="M445.227 394.39C443.575 390.469 441.766 387.03 441.826 384.316C441.887 381.6 442.489 379.731 445.506 378.887C448.521 378.042 449.789 379.67 449.97 383.773C450.15 387.874 445.227 394.39 445.227 394.39Z" fill="#D12050"/>
<path d="M468.879 387.079C475.185 381.36 475.899 374.965 475.307 373.638C474.714 372.311 472.11 371.345 472.11 371.345C472.11 371.345 471.085 375.508 471.688 376.534C472.29 377.558 468.879 387.079 468.879 387.079Z" fill="#D12050"/>
<path d="M458.84 400.909C460.376 400.218 461.98 399.681 463.615 399.236C465.258 398.837 466.945 398.518 468.699 398.632C469.564 398.696 470.493 398.886 471.267 399.498C471.95 400.142 472.468 400.724 473.048 401.385C474.197 402.69 474.989 404.274 475.717 405.763C475.877 406.106 476.132 406.51 476.243 406.546C476.257 406.551 476.251 406.572 476.381 406.49C476.49 406.414 476.617 406.282 476.732 406.137C477.203 405.536 477.588 404.785 477.964 404.053C478.723 402.61 479.131 401.008 479.454 399.378C479.768 397.747 479.95 396.082 480.067 394.413C480.21 392.743 480.258 391.065 480.28 389.382C480.612 392.732 480.618 396.125 480.153 399.496C479.928 401.176 479.507 402.873 478.748 404.439C478.374 405.207 477.993 405.966 477.439 406.7C477.292 406.882 477.134 407.065 476.901 407.234C476.789 407.318 476.636 407.397 476.453 407.441C476.262 407.487 476.032 407.456 475.861 407.375C475.515 407.202 475.369 406.97 475.229 406.773C475.096 406.571 474.99 406.373 474.892 406.179C474.162 404.651 473.438 403.191 472.376 401.944C471.868 401.326 471.272 400.645 470.749 400.119C470.202 399.664 469.42 399.438 468.629 399.339C467.023 399.148 465.345 399.371 463.713 399.678C462.067 399.967 460.449 400.415 458.84 400.909Z" fill="#D12050"/>
<path d="M443.985 398.744C443.285 398.125 442.59 397.507 441.832 396.993C441.458 396.736 441.074 396.49 440.679 396.321C440.479 396.245 440.287 396.185 440.107 396.162C440.027 396.171 439.942 396.163 439.879 396.184C439.82 396.222 439.785 396.207 439.671 396.292C438.115 397.251 436.905 398.569 435.877 400.077C435.354 400.805 434.896 401.638 434.28 402.393C433.971 402.767 433.644 403.13 433.227 403.453C433.01 403.603 432.79 403.778 432.401 403.824C432.215 403.856 431.954 403.775 431.797 403.635C431.639 403.492 431.56 403.327 431.514 403.188C431.344 402.616 431.399 402.141 431.444 401.656C431.503 401.181 431.587 400.715 431.695 400.257C431.926 399.343 432.182 398.446 432.509 397.569C432.384 398.495 432.218 399.41 432.142 400.331C432.09 400.789 432.055 401.246 432.048 401.696C432.046 402.134 432.055 402.615 432.187 402.928C432.216 403.007 432.261 403.049 432.276 403.06C432.299 403.058 432.276 403.067 432.322 403.054C432.4 403.046 432.582 402.942 432.729 402.814C433.036 402.553 433.326 402.211 433.591 401.853C434.135 401.152 434.571 400.343 435.117 399.551C435.666 398.775 436.267 398.025 436.964 397.356C437.661 396.689 438.468 396.117 439.301 395.676C439.378 395.623 439.572 395.552 439.73 395.508C439.889 395.477 440.045 395.494 440.194 395.503C440.474 395.56 440.717 395.66 440.942 395.779C441.38 396.027 441.754 396.327 442.112 396.642C442.802 397.294 443.438 397.984 443.985 398.744Z" fill="#D12050"/>
<path d="M444.342 370.822C444.356 373.371 444.458 375.913 444.722 378.449C445.373 384.67 444.736 392.875 445.228 394.389C445.777 396.078 449.034 402.11 449.034 402.11C449.034 402.11 454.825 399.456 457.238 396.561C459.65 393.666 462.787 393.518 467.01 389.248C471.234 384.978 474.104 378.196 473.163 372.551C473.043 371.828 472.302 364.602 472.137 357.122C471.974 349.642 464.114 343.958 456.635 343.958C449.155 343.958 444.676 355.057 444.442 362.538C444.346 365.607 444.329 368.491 444.342 370.822Z" fill="#FFA498"/>
<path d="M472.137 357.122C472.302 364.603 473.042 371.829 473.163 372.552C473.454 374.297 473.379 376.152 473.013 378.006C471.358 378.311 450.056 378.825 444.536 376.255C444.41 374.448 444.353 372.637 444.342 370.822C444.329 368.491 444.346 365.608 444.442 362.539C444.542 359.368 445.406 355.549 446.936 352.198L464.46 345.987C468.762 348.282 472.033 352.328 472.137 357.122Z" fill="#C57E75"/>
<path d="M431.218 325.975C419.899 325.975 415.664 334.67 415.664 341.185C415.664 347.034 417.538 356.396 431.218 356.396C438.058 356.396 442.689 349.586 442.689 341.185C442.689 332.785 438.058 325.975 431.218 325.975Z" fill="#524787"/>
<path d="M430.72 329.7C422.173 329.7 418.975 336.265 418.975 341.186C418.975 345.601 420.389 352.672 430.72 352.672C435.886 352.672 439.382 347.53 439.382 341.186C439.382 334.842 435.886 329.7 430.72 329.7Z" fill="#38295C"/>
<path d="M416.939 331.109C417.607 335.074 419.571 336.591 420.448 341.937C421.324 347.283 418.986 355.053 422.473 361.82C425.961 368.587 431.6 377.483 434.858 377.859C438.116 378.235 464.21 373.827 473.015 356.319C475.542 351.293 480.944 331.585 476.322 319.552C471.699 307.519 464.18 296.492 446.804 296.157C429.428 295.823 413.395 310.089 416.939 331.109Z" fill="#FFA498"/>
<path d="M431.472 352.788C432.401 352.809 433.419 352.455 433.878 351.847C434.279 351.314 434.446 350.612 434.327 349.956C432.969 351.075 431.303 351.267 429.632 350.976C429.425 352.223 430.387 352.762 431.472 352.788Z" fill="#C57E75"/>
<path d="M462.21 331.109C461.548 326.984 458.792 324.603 458.792 324.603C458.792 324.603 452.15 321.845 447.013 321.345C441.874 320.844 436.611 319.34 436.611 319.34C436.611 319.34 438.241 323.465 440.998 325.224C440.998 325.224 428.717 324.603 424.832 320.969C424.832 320.969 425.584 323.964 426.336 325.975C426.336 325.975 420.321 325.354 418.442 322.974C418.442 322.974 416.938 328.216 416.938 331.109C416.938 331.109 409.712 321.219 411.55 313.367C413.387 305.514 415.893 302.506 415.893 302.506C415.893 302.506 410.714 303.007 407.873 302.506C407.873 302.506 414.557 296.658 419.57 292.816C424.582 288.972 439.619 288.806 439.619 288.806C439.619 288.806 438.449 284.796 439.785 278.447C439.785 278.447 446.218 287.887 453.027 290.769C459.836 293.651 458.918 293.407 466.138 295.228C473.357 297.05 480.219 301.671 483.101 305.555C485.983 309.44 489.117 313.45 490.996 314.076C490.996 314.076 486.484 313.45 484.23 311.57C484.23 311.57 487.99 320.113 483.019 331.109C478.048 342.104 465.593 338.851 463.177 336.423C460.763 333.996 462.21 331.109 462.21 331.109Z" fill="#4375F1"/>
<path d="M463.178 336.424C460.763 333.997 462.21 331.109 462.21 331.109C461.811 328.614 460.645 326.762 459.786 325.683C461.593 314.726 460.856 303.352 457.646 292.72C459.522 293.482 460.636 293.824 463.351 294.522C466.685 299.536 469.178 305.178 470.895 310.893C473.081 318.17 474.139 326.032 472.1 333.353C471.578 335.229 470.815 337.06 469.851 338.774C466.76 338.515 464.152 337.404 463.178 336.424Z" fill="#9A4234"/>
<path d="M466.581 327.025C466.581 327.025 467.44 299.541 453.029 290.77C453.029 290.77 464.181 289.517 470.572 300.669C476.963 311.822 476.531 321.387 476.37 326.748C476.209 332.108 466.581 327.025 466.581 327.025Z" fill="#524787"/>
<path d="M470.974 325.975C482.293 325.975 486.529 334.67 486.529 341.185C486.529 347.034 484.654 356.396 470.974 356.396C464.134 356.396 459.504 349.586 459.504 341.185C459.504 332.785 464.134 325.975 470.974 325.975Z" fill="#524787"/>
<path d="M464.871 341.186C464.871 333.729 469.794 327.683 475.867 327.683C481.939 327.683 486.528 333.729 486.528 341.186C486.528 348.644 481.939 354.69 475.867 354.69C469.794 354.69 464.871 348.644 464.871 341.186Z" fill="#C22373"/>
<path d="M469.836 341.185C469.836 336.11 473.185 331.996 477.318 331.996C481.451 331.996 484.801 336.11 484.801 341.185C484.801 346.261 481.451 350.375 477.318 350.375C473.185 350.375 469.836 346.261 469.836 341.185Z" fill="#D67AA8"/>
<path d="M442.284 356.396C439.225 358.08 429.234 358.642 428.555 358.548C427.875 358.455 429.27 366.041 431.717 366.321C434.164 366.603 439.058 365.947 441.097 363.982C443.135 362.018 442.284 356.396 442.284 356.396Z" fill="#C57E75"/>
<path d="M440.936 338.262C440.936 336.878 441.618 335.756 442.46 335.756C443.303 335.756 443.986 336.878 443.986 338.262C443.986 339.646 443.303 340.768 442.46 340.768C441.618 340.768 440.936 339.646 440.936 338.262Z" fill="#471052"/>
<path d="M423.49 339.431C423.49 338.047 424.077 336.925 424.801 336.925C425.525 336.925 426.112 338.047 426.112 339.431C426.112 340.815 425.525 341.937 424.801 341.937C424.077 341.937 423.49 340.815 423.49 339.431Z" fill="#471052"/>
<path d="M449.472 328.491C448.431 327.918 447.308 327.522 446.158 327.191C445.002 326.881 443.802 326.699 442.586 326.655C441.376 326.595 440.096 326.561 438.925 327.014C437.75 327.419 436.685 328.157 435.9 329.129L435.989 329.279C437.249 329.143 438.288 328.834 439.386 328.688C440.459 328.527 441.5 328.136 442.621 328.045C444.839 327.857 447.165 328.032 449.402 328.65L449.472 328.491Z" fill="#471052"/>
<path d="M419.081 331.73C419.625 331.519 420.197 331.387 420.766 331.322C421.334 331.245 421.902 331.217 422.464 331.211C423.03 331.202 423.594 331.405 424.145 331.27C424.424 331.207 424.709 331.153 424.999 331.032C425.292 330.933 425.59 330.803 425.911 330.579L425.929 330.406C425.383 329.874 424.766 329.646 424.14 329.533C423.507 329.413 422.88 329.668 422.272 329.834C421.661 329.994 421.063 330.207 420.499 330.495C419.947 330.801 419.405 331.122 418.975 331.594L419.081 331.73Z" fill="#471052"/>
<path d="M436.719 511.694C436.727 512.082 436.183 512.643 434.857 512.643H393.011C388.186 512.643 387.06 510.735 388.508 508.322C389.956 505.908 396.069 500.6 411.189 496.9C426.31 493.2 434.261 501.852 436.719 505.747C438.522 508.605 436.719 511.694 436.719 511.694Z" fill="#524787"/>
<path d="M388.153 509.046C388.985 511.813 420.914 510.371 420.914 510.371C420.914 510.371 417.676 505.997 414.098 505.872C410.518 505.747 408.777 506.991 403.978 507.817C399.178 508.642 402.736 505.864 402.736 505.864C402.736 505.864 399.345 505.112 397.965 504.042C397.965 504.042 405.874 501.706 409.192 501.162C412.508 500.62 420.955 500.981 422.04 501.162C422.808 501.29 426.706 499.027 431.414 500.163C434.044 502.084 435.783 504.26 436.721 505.747C438.524 508.604 436.721 511.693 436.721 511.693C436.727 512.081 436.184 512.643 434.858 512.643H393.013C388.683 512.643 387.339 511.104 388.153 509.046Z" fill="#38295C"/>
<path d="M524.72 485.531C524.72 485.531 494.963 490.132 478.833 493.019C463.554 495.753 450.36 496.941 446.621 496.215C442.88 495.492 430.091 490.787 425.989 489.098C421.887 487.409 413.683 486.443 409.461 487.771C405.238 489.098 401.779 490.546 400.09 490.546C398.402 490.546 398.723 493.281 400.975 493.843C403.228 494.406 405.238 494.327 405.238 494.327C405.238 494.327 397.597 498.509 396.229 498.91C394.863 499.312 396.483 501.805 398.332 501.645C398.332 501.645 396.713 502.61 397.275 503.575C397.839 504.54 401.859 504.54 401.859 504.54C401.859 504.54 396.954 506.954 401.056 507.919C405.158 508.883 410.064 504.299 412.075 503.897C414.086 503.494 418.75 503.737 421.003 505.426C423.255 507.114 432.907 514.917 446.097 510.252C446.097 510.252 535.63 513.879 544.557 513.879C553.485 513.879 558.877 505.989 556.014 490.787C553.152 475.585 547.602 464.245 547.602 464.245L516.716 466.416L524.72 485.531Z" fill="#FFA498"/>
<path d="M412.287 491.909C413.075 491.723 413.704 491.615 414.097 491.59C414.097 491.59 413.333 491.722 412.287 491.909Z" fill="#C57E75"/>
<path d="M405.238 494.326C405.238 494.326 403.228 494.406 400.976 493.843C400.342 493.685 399.868 493.352 399.541 492.959C402.046 494.067 405.129 493.36 406.817 492.958C407.883 492.704 410.499 492.227 412.288 491.91C410.496 492.33 407.872 493.152 405.238 494.326Z" fill="#C57E75"/>
<path d="M405.633 497.945C405.826 497.857 405.989 497.789 406.095 497.756C406.095 497.756 405.921 497.826 405.633 497.945Z" fill="#C57E75"/>
<path d="M396.246 500.702C396.275 500.728 397.158 501.507 399.017 500.697C400.566 500.024 404.324 498.481 405.633 497.945C403.986 498.693 399.522 501.213 398.333 501.645C397.511 501.716 396.736 501.263 396.246 500.702Z" fill="#C57E75"/>
<path d="M400.867 503.656C402.234 503.253 405.09 501.523 406.839 500.697C408.588 499.87 410.82 499.775 410.82 499.775C410.82 499.775 410.157 499.835 408.407 500.697C406.659 501.559 401.86 504.54 401.86 504.54C401.86 504.54 399.281 504.539 397.965 504.042C397.979 504.042 399.505 504.056 400.867 503.656Z" fill="#C57E75"/>
<path d="M426.324 505.626C428.856 507.195 436.337 509.246 440.801 508.402C445.265 507.557 446.23 503.817 446.23 503.817L447.478 507.839C447.478 507.839 509.57 509.609 522.198 509.04C534.681 508.479 554.151 508.195 556.694 500.697C555.996 509.401 551.281 513.879 544.558 513.879C535.63 513.879 446.097 510.252 446.097 510.252C432.907 514.917 423.256 507.114 421.003 505.426C419.131 504.021 415.596 503.619 413.299 503.755H413.3C416.725 502.555 423.79 504.058 426.324 505.626Z" fill="#C57E75"/>
<path d="M524.72 485.531C524.72 485.531 536.353 483.95 538.685 483.709L536.916 476.47L522.197 479.446L524.72 485.531Z" fill="#C57E75"/>
<path d="M555.811 465.268C556.249 466.402 555.971 467.675 555.102 468.523C549.696 473.803 542.597 480.994 535.298 482.1C527.335 483.306 514.063 483.789 513.339 482.1C512.615 480.411 509.962 458.936 505.136 448.078C500.31 437.22 497.173 431.67 495.966 425.396C494.76 419.122 505.618 404.403 510.444 403.196C515.27 401.99 526.37 401.266 530.954 405.369C535.539 409.47 538.917 425.155 544.225 436.979C548.509 446.519 553.892 460.301 555.811 465.268Z" fill="#DC466F"/>
<path d="M525.944 402.986C524.466 402.815 522.989 402.693 521.509 402.66C520.032 402.601 518.555 402.606 517.085 402.692C515.616 402.781 514.153 402.929 512.713 403.188C511.989 403.303 511.279 403.47 510.567 403.63C509.905 403.871 509.222 404.047 508.612 404.429C507.963 404.72 507.399 405.178 506.804 405.575C506.262 406.053 505.683 406.487 505.187 407.023C504.127 408.02 503.234 409.19 502.328 410.345C501.444 411.52 500.642 412.761 499.88 414.028C499.095 415.284 498.398 416.591 497.719 417.914C498.716 415.107 500.094 412.438 501.747 409.935C502.588 408.693 503.5 407.487 504.567 406.407C505.067 405.838 505.682 405.373 506.248 404.864C506.88 404.43 507.474 403.94 508.183 403.611C508.847 403.209 509.614 403.006 510.351 402.754C511.09 402.599 511.825 402.423 512.572 402.326C514.063 402.113 515.564 401.972 517.064 401.986C520.058 401.978 523.051 402.269 525.944 402.986Z" fill="#D12050"/>
<path d="M549.787 469.713C549.747 465.857 541.606 430.513 534.414 410.813C537.472 417.544 540.329 428.299 544.225 436.978C548.509 446.518 553.892 460.301 555.812 465.267C556.249 466.401 555.971 467.675 555.102 468.523C553.032 470.545 550.711 472.847 548.228 474.98C548.415 474.799 549.824 473.313 549.787 469.713Z" fill="#D12050"/>
<path d="M161.657 429.895C161.51 431.084 161.758 432.283 162.336 433.333C164.442 437.162 165.509 441.562 165.371 445.931C165.28 448.81 164.688 451.755 165.473 454.527C166.825 459.309 171.871 462.266 173.496 466.962C174.935 471.126 173.597 476.361 176.588 479.594C177.33 480.395 178.482 481.009 179.496 480.603C180.004 480.399 180.386 479.974 180.748 479.563C184.179 475.666 187.852 470.931 186.794 465.849C185.8 461.074 180.879 457.847 179.946 453.06C179.185 449.149 181.184 444.637 178.943 441.342C178.325 440.432 177.439 439.737 176.764 438.869C174.098 435.447 175.086 429.992 172.015 426.929C171.014 425.93 169.761 425.364 168.395 425.072C165.176 424.383 162.06 426.627 161.657 429.894V429.895Z" fill="#D35E5A"/>
<path d="M181.166 490.562C181.372 488.016 181.46 485.468 181.555 482.914C181.439 480.367 181.303 477.82 181.085 475.274C180.867 472.729 180.581 470.184 180.13 467.654C179.673 465.14 179.069 462.571 178.012 460.207C176.164 455.536 174.671 450.651 173.162 445.81L170.973 438.513C170.074 436.129 169.196 433.74 168.348 431.334C168.72 433.866 169.299 436.35 169.807 438.854L172 446.167C173.518 451.033 174.998 455.888 176.891 460.675C177.914 462.964 178.48 465.386 178.935 467.866C179.376 470.343 179.658 472.857 179.875 475.377C180.087 477.899 180.235 480.43 180.332 482.963L181.166 490.562Z" fill="#FFA8A5"/>
<path d="M167.721 438.939C168.141 439.575 168.682 440.052 169.263 440.473C169.561 440.673 169.912 440.804 170.237 440.968C170.567 441.126 170.855 441.339 171.123 441.58L171.238 441.686L171.342 441.528C171.585 441.155 171.88 440.81 172.112 440.434C172.337 440.054 172.573 439.68 172.772 439.287C173.161 438.496 173.45 437.655 173.596 436.745L173.524 436.709C172.888 437.377 172.393 438.114 171.998 438.902C171.805 439.299 171.65 439.713 171.482 440.121C171.322 440.535 171.226 440.979 171.078 441.396L171.298 441.344C170.987 441.159 170.698 440.947 170.45 440.678C170.198 440.417 169.971 440.121 169.692 439.896C169.119 439.465 168.504 439.09 167.77 438.876L167.721 438.939Z" fill="#FFA8A5"/>
<path d="M168.34 447.647C168.778 448.008 169.229 448.397 169.702 448.723C170.173 449.057 170.653 449.379 171.171 449.638C171.695 449.89 172.251 450.089 172.755 450.374C173.262 450.654 173.724 451.007 174.175 451.374L174.335 451.504L174.496 451.293C175.193 450.378 175.791 449.406 176.355 448.416C176.886 447.405 177.358 446.362 177.697 445.244L177.627 445.205C176.845 446.073 176.196 447.016 175.604 447.99C175.046 448.985 174.521 449.998 174.098 451.068L174.418 450.987C173.889 450.741 173.369 450.482 172.892 450.153C172.413 449.828 171.984 449.421 171.522 449.067C171.055 448.721 170.545 448.442 170.024 448.183C169.497 447.93 168.974 447.685 168.357 447.568L168.34 447.647Z" fill="#FFA8A5"/>
<path d="M171.434 459.139C171.913 459.622 172.448 459.979 173 460.301C173.544 460.636 174.143 460.859 174.779 461.008C175.415 461.163 175.99 461.443 176.502 461.835C177.014 462.223 177.514 462.65 178.024 462.986L178.411 463.239L178.698 462.808C179.121 462.174 179.506 461.519 179.804 460.815C180.104 460.114 180.37 459.392 180.518 458.608L180.43 458.559C179.846 459.105 179.379 459.715 178.947 460.344C178.513 460.972 178.165 461.648 177.856 462.346L178.53 462.168C177.946 461.847 177.325 461.661 176.711 461.446C176.096 461.235 175.536 460.93 175.031 460.51C174.529 460.083 173.978 459.746 173.374 459.525C172.774 459.293 172.154 459.104 171.476 459.048L171.434 459.139Z" fill="#FFA8A5"/>
<path d="M185.218 491.06C187.209 490.733 194.671 488.346 194.151 486.397C191.913 478.033 189.676 468.544 197.423 464.453C201.151 462.485 205.83 461.484 207.953 457.842C210.14 454.09 208.53 449.321 206.568 445.448C204.605 441.574 202.243 437.428 203.084 433.167C203.965 428.707 208.184 425.415 208.858 420.918C209.779 414.778 203.817 409.831 198.09 407.434C196.142 406.618 194 405.921 191.947 406.417C190.481 406.77 189.209 407.711 188.204 408.835C184.181 413.334 184.345 420.122 185.263 426.087C186.181 432.052 187.587 438.351 185.34 443.953C183.744 447.931 180.328 451.673 181.243 455.861C181.609 457.539 182.655 459.002 183.054 460.672C184.129 465.174 180.39 469.23 178.675 473.529C176.464 479.077 177.982 485.856 182.175 490.066C182.972 490.866 184.102 491.243 185.218 491.06Z" fill="#FF7571"/>
<path d="M184.514 491.153C184.975 487.842 185.436 484.543 186.026 481.268C186.166 480.449 186.338 479.634 186.47 478.815C186.594 477.996 186.668 477.169 186.804 476.351C187.051 474.712 187.326 473.078 187.639 471.455C188.271 468.21 189.027 464.979 190.136 461.908C190.692 460.378 191.353 458.881 192.223 457.591C192.656 456.948 193.167 456.377 193.733 455.992C194.479 455.503 195.19 454.872 195.746 454.12C196.894 452.599 197.24 450.667 197.199 448.927C197.16 447.162 196.826 445.476 196.453 443.831C195.686 440.546 194.721 437.374 194.184 434.143C193.639 430.928 193.532 427.635 194.382 424.551C194.642 423.798 194.848 423.032 195.096 422.266C195.348 421.503 195.677 420.762 196.047 420.036C196.79 418.584 197.76 417.232 198.834 415.946C197.518 416.979 196.296 418.173 195.278 419.554C194.766 420.24 194.287 420.963 193.88 421.73C193.458 422.489 193.102 423.297 192.916 424.15C191.987 427.525 192.12 431.058 192.685 434.393C193.244 437.745 194.226 440.967 194.973 444.171C195.337 445.772 195.647 447.38 195.68 448.952C195.713 450.518 195.41 452.048 194.525 453.218C194.087 453.804 193.538 454.302 192.892 454.727C192.077 455.285 191.473 455.995 190.973 456.728C189.979 458.205 189.294 459.789 188.709 461.386C187.554 464.588 186.791 467.872 186.148 471.166C185.83 472.814 185.552 474.468 185.301 476.125C185.188 476.955 185.033 477.778 184.933 478.611C184.848 479.444 184.811 480.283 184.757 481.12C184.576 484.466 184.452 487.809 184.514 491.153Z" fill="#FFA8A5"/>
<path d="M197.735 425.868C197.162 426.068 196.681 426.402 196.236 426.758C195.795 427.12 195.374 427.505 195.063 427.991C194.749 428.473 194.469 428.982 194.066 429.378C193.679 429.789 193.212 430.122 192.763 430.483L193.353 430.52C193.154 430.091 192.909 429.69 192.684 429.278C192.451 428.871 192.218 428.466 191.944 428.088C191.685 427.7 191.389 427.335 191.109 426.964C190.826 426.591 190.507 426.247 190.25 425.852L190.15 425.869C190.129 426.39 190.286 426.874 190.446 427.331C190.621 427.785 190.816 428.225 191.051 428.641C191.271 429.066 191.55 429.452 191.832 429.835C192.123 430.213 192.4 430.595 192.734 430.946L193.103 431.334L193.324 430.982C193.626 430.504 193.918 430.006 194.295 429.588C194.655 429.157 195.146 428.845 195.61 428.514C196.077 428.185 196.445 427.765 196.806 427.338C197.164 426.905 197.498 426.46 197.798 425.947L197.735 425.868Z" fill="#FFA8A5"/>
<path d="M190.498 438.532C190.735 439.102 191.044 439.622 191.389 440.109C191.742 440.59 192.109 441.059 192.53 441.478C192.961 441.888 193.454 442.238 193.916 442.615C194.369 443.001 194.768 443.435 195.13 443.909L195.246 444.06L195.408 443.93C196.011 443.451 196.489 443.014 196.964 442.503C197.414 441.989 197.893 441.501 198.312 440.967C198.735 440.436 199.128 439.884 199.502 439.318C199.88 438.752 200.219 438.162 200.613 437.61L200.556 437.526C199.895 437.839 199.38 438.322 198.869 438.783C198.368 439.257 197.901 439.76 197.47 440.287C197.033 440.812 196.663 441.387 196.258 441.932C195.863 442.465 195.529 443.128 195.154 443.595L195.432 443.616C194.974 443.241 194.561 442.818 194.206 442.343C193.86 441.859 193.549 441.343 193.185 440.88C192.812 440.425 192.387 440.016 191.964 439.607C191.534 439.204 191.076 438.824 190.578 438.471L190.498 438.532Z" fill="#FFA8A5"/>
<path d="M203.807 448.309C203.178 449.046 202.527 449.726 201.861 450.375C201.192 451.026 200.475 451.595 199.777 452.22C199.065 452.825 198.258 453.367 197.344 453.634C196.438 453.919 195.476 453.956 194.548 453.945L194.964 454.237C194.8 453.456 194.558 452.719 194.302 451.974C194.049 451.231 193.728 450.508 193.34 449.819C192.955 449.127 192.499 448.466 191.961 447.869C191.413 447.289 190.78 446.744 190.023 446.473L189.973 446.56C190.545 447.079 190.987 447.677 191.371 448.317C191.761 448.95 192.09 449.621 192.416 450.295L193.347 452.351C193.653 453.04 193.923 453.757 194.191 454.454L194.32 454.791L194.606 454.746C195.593 454.591 196.53 454.257 197.446 453.935C198.351 453.582 199.281 453.272 200.171 452.816C201.071 452.375 201.828 451.694 202.463 450.934C203.097 450.173 203.615 449.307 203.897 448.354L203.807 448.309Z" fill="#FFA8A5"/>
<path d="M185.809 455.791C185.504 456.523 185.4 457.322 185.42 458.113C185.454 458.902 185.578 459.698 185.855 460.443C186.146 461.182 186.573 461.861 187.049 462.477L188.443 464.328L188.542 464.46L188.702 464.346C189.456 463.81 190.313 463.404 191.13 462.978C191.946 462.54 192.792 462.164 193.638 461.805C194.483 461.44 195.328 461.071 196.195 460.745C197.056 460.391 197.942 460.11 198.842 459.772L198.827 459.671C196.908 459.63 194.969 460.037 193.204 460.814C192.319 461.201 191.486 461.697 190.681 462.22C189.878 462.756 189.162 463.401 188.46 464.066L188.72 464.084C188.204 463.54 187.734 462.939 187.434 462.249C187.1 461.575 186.935 460.841 186.706 460.155C186.261 458.769 185.979 457.342 185.908 455.814L185.809 455.791Z" fill="#FFA8A5"/>
<path d="M171.687 512.642H192.991C194.968 512.642 196.649 510.932 196.947 508.619L200.319 482.412C200.689 479.546 198.813 476.963 196.364 476.963H168.315C165.865 476.963 163.99 479.546 164.359 482.412L167.732 508.619C168.029 510.932 169.71 512.642 171.687 512.642Z" fill="#524787"/>
<path d="M168.315 476.965H182.654C180.204 476.965 178.329 479.547 178.698 482.413L182.07 508.621C182.368 510.934 184.05 512.643 186.026 512.643H171.687C169.71 512.643 168.029 510.934 167.732 508.621L164.359 482.413C163.99 479.547 165.865 476.965 168.315 476.965Z" fill="#38295C"/>
<path d="M362.523 505.445H273.421C272.524 505.445 271.797 506.172 271.797 507.07V511.017C271.797 511.915 272.524 512.642 273.421 512.642H362.523V505.445Z" fill="#3A4278"/>
<path d="M385.452 510.409V512.013C385.452 512.361 385.171 512.642 384.824 512.642H362.379C361.681 512.642 361.115 512.076 361.115 511.378V506.701C361.115 505.947 361.772 505.36 362.522 505.445L384.894 509.786C385.212 509.822 385.452 510.09 385.452 510.409Z" fill="#524787"/>
<path d="M206.809 354.005H373.337C376.707 354.005 379.713 356.119 380.855 359.289L417.274 460.429C418.797 465.645 414.981 469.553 408.849 470.214C407.908 470.315 403.435 468.304 396.411 465H247.533C244.164 465 241.157 462.887 240.015 459.717L207.116 368.353C201.554 365.45 198.383 363.791 198.383 363.791C198.383 363.791 196.323 354.005 206.809 354.005Z" fill="#636A98"/>
<path d="M368.124 359.219H201.595C199.231 359.219 197.581 361.565 198.382 363.79L234.802 464.93C235.944 468.1 238.952 470.213 242.321 470.213H408.848C411.215 470.213 412.863 467.867 412.062 465.641L375.643 364.502C374.501 361.332 371.493 359.219 368.124 359.219Z" fill="#838BC0"/>
<path d="M330.53 470.214L323.138 442.797L295.121 470.214H330.53Z" fill="#261B41"/>
<path d="M368.246 453.384L366.105 447.436H368.797L370.938 453.384H368.246Z" fill="#261B41"/>
<path d="M362.578 453.384L360.438 447.436H363.129L365.27 453.384H362.578Z" fill="#261B41"/>
<path d="M356.91 453.384L354.77 447.436H357.461L359.603 453.384H356.91Z" fill="#261B41"/>
<path d="M351.242 453.384L349.102 447.436H351.793L353.934 453.384H351.242Z" fill="#261B41"/>
<path d="M270.729 453.384L268.588 447.436H271.279L273.421 453.384H270.729Z" fill="#261B41"/>
<path d="M265.061 453.384L262.92 447.436H265.612L267.752 453.384H265.061Z" fill="#261B41"/>
<path d="M259.392 453.384L257.25 447.436H259.942L262.083 453.384H259.392Z" fill="#261B41"/>
<path d="M253.723 453.384L251.582 447.436H254.274L256.415 453.384H253.723Z" fill="#261B41"/>
<path d="M274.296 502.868C275.939 498.143 295.867 433.84 295.867 433.84H321.447L323.137 442.796C323.137 442.796 305.986 498.143 304.343 502.868C304.217 503.228 304.098 503.589 303.986 503.951H303.988C302.485 508.571 306.451 508.551 310.916 508.551H356.03V512.642H310.916H280.871C271.831 512.642 272.652 507.592 274.296 502.868Z" fill="#636A98"/>
<path d="M321.447 433.84C321.447 433.84 301.519 498.143 299.876 502.868C298.232 507.592 297.411 512.642 306.45 512.642H276.403C267.364 512.642 268.186 507.592 269.83 502.868C271.473 498.143 291.4 433.84 291.4 433.84H321.447Z" fill="#838BC0"/>
<path d="M315.183 433.84C313.201 433.749 311.219 433.704 309.237 433.639C307.256 433.571 305.274 433.555 303.292 433.513C301.31 433.481 299.328 433.423 297.346 433.422L291.401 433.385L291.069 433.384L290.966 433.705C290.138 436.295 289.321 438.889 288.542 441.494L286.172 449.298C284.646 454.519 283.118 459.738 281.725 464.999C283.555 459.874 285.252 454.707 286.953 449.541L289.421 441.766C290.255 439.178 291.051 436.579 291.835 433.975L291.401 434.295L297.346 434.258C299.328 434.258 301.31 434.2 303.292 434.168C305.274 434.125 307.256 434.11 309.237 434.041C311.219 433.977 313.201 433.932 315.183 433.84Z" fill="#8475D5"/>
<path d="M140.916 528.429H581.982C586.342 528.429 589.875 524.895 589.875 520.535C589.875 516.176 586.342 512.642 581.982 512.642H140.916C136.557 512.642 133.023 516.176 133.023 520.535C133.023 524.895 136.557 528.429 140.916 528.429Z" fill="#A14F58"/>
<path d="M140.916 528.429H581.982C586.342 528.429 589.875 524.895 589.875 520.535H133.023C133.023 524.895 136.557 528.429 140.916 528.429Z" fill="#713349"/>
<path d="M232.879 273.79C232.879 310.456 203.156 340.179 166.49 340.179C129.824 340.179 100.1 310.456 100.1 273.79C100.1 237.124 129.824 207.4 166.49 207.4C203.156 207.4 232.879 237.124 232.879 273.79Z" fill="#AEBAEA"/>
<path d="M261.08 260.81C261.08 282.133 278.365 299.418 299.687 299.418C321.009 299.418 338.294 282.133 338.294 260.81C338.294 239.488 321.009 222.203 299.687 222.203C278.365 222.203 261.08 239.488 261.08 260.81Z" fill="#E6B851"/>
<path d="M280.64 275.924H318.733C320.481 275.924 321.899 274.506 321.899 272.758V248.863C321.899 247.114 320.481 245.697 318.733 245.697H280.64C278.892 245.697 277.475 247.114 277.475 248.863V272.758C277.475 274.506 278.892 275.924 280.64 275.924Z" fill="#6C83DC"/>
<path d="M280.64 275.924H318.733C320.481 275.924 321.899 274.506 321.899 272.758L299.687 258.79L277.475 272.758C277.475 274.506 278.892 275.924 280.64 275.924Z" fill="#C8DDF5"/>
<path d="M280.64 245.697H318.733C320.481 245.697 321.899 247.114 321.899 248.862L299.687 262.83L277.475 248.862C277.475 247.114 278.892 245.697 280.64 245.697Z" fill="#4371D7"/>
<path d="M534.791 316.366C534.791 337.688 552.075 354.974 573.398 354.974C594.72 354.974 612.005 337.688 612.005 316.366C612.005 295.044 594.72 277.759 573.398 277.759C552.075 277.759 534.791 295.044 534.791 316.366Z" fill="#E6B851"/>
<path d="M566.798 317.892C563.507 317.892 560.842 315.225 560.842 311.935C560.842 308.645 563.507 305.978 566.798 305.978C570.088 305.978 572.755 308.645 572.755 311.935C572.755 315.225 570.088 317.892 566.798 317.892ZM584.227 308.817H580.345C579.994 307.285 579.39 305.855 578.58 304.563L581.328 301.816C581.702 301.441 581.702 300.834 581.328 300.459L578.274 297.406C577.9 297.032 577.292 297.032 576.917 297.406L574.17 300.153C572.878 299.342 571.447 298.738 569.916 298.387V294.506C569.916 293.976 569.487 293.546 568.957 293.546H564.639C564.11 293.546 563.68 293.976 563.68 294.506V298.387C562.149 298.738 560.718 299.342 559.425 300.153L556.679 297.406C556.305 297.032 555.696 297.032 555.322 297.406L552.269 300.459C551.895 300.834 551.895 301.441 552.269 301.816L555.016 304.563C554.205 305.855 553.602 307.285 553.25 308.817H549.369C548.839 308.817 548.41 309.247 548.41 309.776V314.094C548.41 314.624 548.839 315.053 549.369 315.053H553.25C553.602 316.584 554.205 318.015 555.016 319.307L552.269 322.054C551.895 322.43 551.895 323.037 552.269 323.411L555.322 326.464C555.696 326.839 556.305 326.839 556.679 326.464L559.425 323.717C560.718 324.527 562.149 325.131 563.68 325.482V329.364C563.68 329.894 564.11 330.323 564.639 330.323H568.957C569.487 330.323 569.916 329.894 569.916 329.364V325.482C571.447 325.131 572.878 324.527 574.17 323.717L576.917 326.464C577.292 326.839 577.9 326.839 578.274 326.464L581.328 323.411C581.702 323.037 581.702 322.43 581.328 322.054L578.58 319.307C579.39 318.015 579.994 316.584 580.345 315.053H584.227C584.758 315.053 585.186 314.624 585.186 314.094V309.776C585.186 309.247 584.758 308.817 584.227 308.817Z" fill="#6C83DC"/>
<path d="M566.798 316.998C564.002 316.998 561.735 314.73 561.735 311.934C561.735 309.138 564.002 306.872 566.798 306.872C569.594 306.872 571.861 309.138 571.861 311.934C571.861 314.73 569.594 316.998 566.798 316.998ZM566.798 303.642C562.219 303.642 558.506 307.355 558.506 311.934C558.506 316.515 562.219 320.226 566.798 320.226C571.377 320.226 575.091 316.515 575.091 311.934C575.091 307.355 571.377 303.642 566.798 303.642Z" fill="#4371D7"/>
<path d="M591.902 330.456C590.221 330.456 588.858 329.094 588.858 327.413C588.858 325.732 590.221 324.37 591.902 324.37C593.582 324.37 594.945 325.732 594.945 327.413C594.945 329.094 593.582 330.456 591.902 330.456ZM600.806 325.82H598.822C598.644 325.038 598.335 324.307 597.921 323.647L599.324 322.243C599.515 322.052 599.515 321.742 599.324 321.55L597.765 319.991C597.574 319.799 597.263 319.799 597.072 319.991L595.667 321.394C595.008 320.98 594.277 320.672 593.495 320.492V318.51C593.495 318.239 593.275 318.02 593.004 318.02H590.799C590.528 318.02 590.308 318.239 590.308 318.51V320.492C589.527 320.672 588.796 320.98 588.136 321.394L586.732 319.991C586.54 319.799 586.23 319.799 586.038 319.991L584.48 321.55C584.288 321.742 584.288 322.052 584.48 322.243L585.882 323.647C585.469 324.307 585.16 325.038 584.981 325.82H582.998C582.727 325.82 582.508 326.04 582.508 326.31V328.516C582.508 328.786 582.727 329.006 582.998 329.006H584.981C585.16 329.788 585.469 330.519 585.882 331.179L584.48 332.583C584.288 332.774 584.288 333.085 584.48 333.276L586.038 334.836C586.23 335.027 586.54 335.027 586.732 334.836L588.136 333.432C588.796 333.846 589.527 334.155 590.308 334.334V336.317C590.308 336.588 590.528 336.808 590.799 336.808H593.004C593.275 336.808 593.495 336.588 593.495 336.317V334.334C594.277 334.155 595.008 333.846 595.667 333.432L597.072 334.836C597.263 335.027 597.574 335.027 597.765 334.836L599.324 333.276C599.515 333.085 599.515 332.774 599.324 332.583L597.921 331.179C598.335 330.519 598.644 329.788 598.822 329.006H600.806C601.076 329.006 601.295 328.786 601.295 328.516V326.31C601.295 326.04 601.076 325.82 600.806 325.82Z" fill="#6C83DC"/>
<path d="M591.903 330C590.473 330 589.315 328.842 589.315 327.414C589.315 325.984 590.473 324.826 591.903 324.826C593.331 324.826 594.489 325.984 594.489 327.414C594.489 328.842 593.331 330 591.903 330ZM591.903 323.177C589.563 323.177 587.666 325.073 587.666 327.414C587.666 329.752 589.563 331.649 591.903 331.649C594.241 331.649 596.138 329.752 596.138 327.414C596.138 325.073 594.241 323.177 591.903 323.177Z" fill="#4371D7"/>
<path d="M360.619 207.013C360.619 228.335 377.904 245.62 399.226 245.62C420.548 245.62 437.833 228.335 437.833 207.013C437.833 185.69 420.548 168.405 399.226 168.405C377.904 168.405 360.619 185.69 360.619 207.013Z" fill="#E3E4EB"/>
<path d="M377.016 196.817H421.441V191.92C421.441 190.234 420.074 188.867 418.388 188.867H380.069C378.382 188.867 377.016 190.234 377.016 191.92V196.817Z" fill="#4371D7"/>
<path d="M402.032 205.392H404.415C404.82 205.392 405.148 205.064 405.148 204.659V202.275C405.148 201.87 404.82 201.543 404.415 201.543H402.032C401.628 201.543 401.299 201.87 401.299 202.275V204.659C401.299 205.064 401.628 205.392 402.032 205.392Z" fill="#6C83DC"/>
<path d="M392.873 205.392H395.256C395.662 205.392 395.989 205.064 395.989 204.659V202.275C395.989 201.87 395.662 201.543 395.256 201.543H392.873C392.469 201.543 392.141 201.87 392.141 202.275V204.659C392.141 205.064 392.469 205.392 392.873 205.392Z" fill="#6C83DC"/>
<path d="M383.715 205.392H386.099C386.504 205.392 386.832 205.064 386.832 204.659V202.275C386.832 201.87 386.504 201.543 386.099 201.543H383.715C383.311 201.543 382.982 201.87 382.982 202.275V204.659C382.982 205.064 383.311 205.392 383.715 205.392Z" fill="#6C83DC"/>
<path d="M411.19 213.277H413.573C413.978 213.277 414.306 212.949 414.306 212.545V210.161C414.306 209.756 413.978 209.429 413.573 209.429H411.19C410.785 209.429 410.457 209.756 410.457 210.161V212.545C410.457 212.949 410.785 213.277 411.19 213.277Z" fill="#6C83DC"/>
<path d="M402.032 213.277H404.415C404.82 213.277 405.148 212.949 405.148 212.545V210.161C405.148 209.756 404.82 209.429 404.415 209.429H402.032C401.628 209.429 401.299 209.756 401.299 210.161V212.545C401.299 212.949 401.628 213.277 402.032 213.277Z" fill="#6C83DC"/>
<path d="M392.873 213.277H395.256C395.662 213.277 395.989 212.949 395.989 212.545V210.161C395.989 209.756 395.662 209.429 395.256 209.429H392.873C392.469 209.429 392.141 209.756 392.141 210.161V212.545C392.141 212.949 392.469 213.277 392.873 213.277Z" fill="#6C83DC"/>
<path d="M383.715 213.277H386.099C386.504 213.277 386.832 212.949 386.832 212.545V210.161C386.832 209.756 386.504 209.429 386.099 209.429H383.715C383.311 209.429 382.982 209.756 382.982 210.161V212.545C382.982 212.949 383.311 213.277 383.715 213.277Z" fill="#6C83DC"/>
<path d="M411.19 221.163H413.573C413.978 221.163 414.306 220.835 414.306 220.43V218.046C414.306 217.641 413.978 217.313 413.573 217.313H411.19C410.785 217.313 410.457 217.641 410.457 218.046V220.43C410.457 220.835 410.785 221.163 411.19 221.163Z" fill="#6C83DC"/>
<path d="M402.032 221.163H404.415C404.82 221.163 405.148 220.835 405.148 220.43V218.046C405.148 217.641 404.82 217.313 404.415 217.313H402.032C401.628 217.313 401.299 217.641 401.299 218.046V220.43C401.299 220.835 401.628 221.163 402.032 221.163Z" fill="#6C83DC"/>
<path d="M392.873 221.163H395.256C395.662 221.163 395.989 220.835 395.989 220.43V218.046C395.989 217.641 395.662 217.313 395.256 217.313H392.873C392.469 217.313 392.141 217.641 392.141 218.046V220.43C392.141 220.835 392.469 221.163 392.873 221.163Z" fill="#6C83DC"/>
<path d="M548.354 226.853C548.354 248.175 531.069 265.46 509.747 265.46C488.425 265.46 471.141 248.175 471.141 226.853C471.141 205.531 488.425 188.245 509.747 188.245C531.069 188.245 548.354 205.531 548.354 226.853Z" fill="#FF7571"/>
<path d="M511.965 249.382V245.771C511.965 245.099 511.421 244.555 510.75 244.555H508.747C508.075 244.555 507.531 245.099 507.531 245.771V249.382C496.799 248.339 488.263 239.802 487.219 229.071H490.83C491.501 229.071 492.046 228.526 492.046 227.855V225.852C492.046 225.18 491.501 224.636 490.83 224.636H487.219C488.263 213.904 496.799 205.367 507.531 204.323V207.935C507.531 208.606 508.075 209.15 508.747 209.15H510.75C511.421 209.15 511.965 208.606 511.965 207.935V204.323C522.698 205.367 531.234 213.904 532.278 224.636H528.667C527.996 224.636 527.451 225.18 527.451 225.852V227.855C527.451 228.526 527.996 229.071 528.667 229.071H532.278C531.234 239.802 522.698 248.339 511.965 249.382ZM509.749 200.41C495.144 200.41 483.305 212.248 483.305 226.853C483.305 241.457 495.144 253.296 509.749 253.296C524.352 253.296 536.192 241.457 536.192 226.853C536.192 212.248 524.352 200.41 509.749 200.41Z" fill="#CC3834"/>
<path d="M491.55 188.596C491.55 186.296 492.17 184.54 493.41 183.326C494.482 182.254 495.89 181.718 497.634 181.718C499.235 181.718 500.598 182.318 501.722 183.519C502.858 184.721 503.427 186.122 503.427 187.724C503.427 189.377 503.058 190.972 502.322 192.509C501.922 193.362 500.985 194.828 499.513 196.907C499.112 197.476 498.518 198.36 497.73 199.562L497.072 200.55C496.645 201.196 496.323 201.706 496.103 202.08C496 202.261 495.948 202.371 495.948 202.41L503.136 202.429V206.013H491.492V202.662C491.492 202.584 491.763 202.138 492.306 201.325C492.551 200.95 492.829 200.537 493.139 200.085L494.088 198.709C494.643 197.947 495.515 196.726 496.704 195.047C497.827 193.472 498.667 192.044 499.222 190.766C499.674 189.719 499.9 188.744 499.9 187.84C499.9 187.104 499.694 186.477 499.28 185.961C498.828 185.418 498.247 185.147 497.537 185.147C496.516 185.147 495.793 185.735 495.367 186.91C495.225 187.297 495.154 187.762 495.154 188.305V189.235H491.55V188.596ZM503.613 197.101L510.084 181.718H513.746V197.101H516.09V200.782H513.746V206.013H510.084V200.782H503.613V197.101ZM510.084 197.101V189.526L507.062 197.101H510.084ZM501.625 216.206H504.608L494.475 242.769H491.492L501.625 216.206ZM518.134 217.718V221.399L513 242.013H509.416L514.55 221.399H507.13V217.718H518.134Z" fill="#D6C9DB"/>
<path d="M269.338 379.771C270.599 386.106 264.734 391.737 262.898 392.793C261.061 393.848 248.739 398.775 241.336 398.951C233.934 399.127 224.164 383.467 228.162 381.708C232.161 379.948 259.399 378.013 262.39 378.013C265.381 378.013 269.338 379.771 269.338 379.771Z" fill="#FFC6C8"/>
<path d="M249.926 376.43C246.695 395.432 239.021 410.213 236.626 410.477C234.232 410.74 211.228 402.823 204.887 399.919C198.546 397.016 206.834 352.417 210.781 353.203C214.729 353.988 223.381 362.556 230.526 366.665C237.671 370.774 249.926 376.43 249.926 376.43Z" fill="#F9CA45"/>
<path d="M212.036 384.329C214.254 388.132 232.534 397.772 242.602 401.286C240.114 406.897 237.769 410.35 236.627 410.476C234.577 410.702 217.419 404.93 208.549 401.443C209.292 394.381 212.036 384.329 212.036 384.329Z" fill="#C7A237"/>
<path d="M269.366 378.893C269.547 386.432 262.757 387.515 254.628 385.58C246.499 383.644 233.227 365.345 227.319 357.075C221.41 348.805 210.385 334.069 208.106 332.751C205.827 331.43 200.598 330.73 196.125 323.295C191.652 315.859 197.536 300.287 199.65 298.44C201.764 296.592 219.878 302.76 221.983 305.879C224.087 308.997 220.492 325.756 221.13 327.867C221.768 329.979 237.184 347.222 243.916 351.445C250.646 355.668 269.235 373.439 269.366 378.893Z" fill="#FFC6C8"/>
<path d="M208.928 310.881C206.797 309.826 206.283 305.03 207.622 305.876C208.963 306.721 211.307 306.703 214.479 306.658C217.651 306.614 218.952 306.341 218.952 306.341C218.952 306.341 219.276 308.418 219.26 310.121C219.26 310.121 211.059 311.937 208.928 310.881Z" fill="#FF8B8C"/>
<path d="M194.821 311.971C196.113 309.569 197.11 307.748 197.11 307.748L209.571 319.742C212.978 316.788 217.147 314.091 217.147 314.091L218.244 316.046C216.228 319.458 214.472 326.672 214.432 328.431C214.432 328.431 212.518 330.543 211.45 330.719C211.45 330.719 224.781 351.833 233.351 362.214C241.87 372.534 247.705 381.46 251.723 384.329C243.619 379.656 232.566 364.422 227.316 357.075C221.408 348.805 210.384 334.069 208.104 332.75C205.826 331.43 200.597 330.73 196.125 323.294C194.35 320.345 194.217 316.117 194.821 311.971Z" fill="#FF8B8C"/>
<path d="M220.758 313.175C220.606 314.406 208.224 325.14 206.927 326.371C206.83 326.464 205.863 326.605 205.597 326.371C202.303 323.477 187.923 297.365 187.667 296.423C187.426 295.543 196.973 286.561 199.888 284.158C200.285 283.83 201.921 284.029 202.189 284.426C205.13 288.782 220.953 311.586 220.758 313.175Z" fill="#050233"/>
<path d="M219.427 313.175C219.276 314.406 206.893 325.14 205.597 326.371C204.3 327.603 186.613 297.441 186.336 296.423C186.096 295.543 196.725 286.707 199.639 284.303C200.036 283.976 200.59 284.029 200.859 284.426C203.8 288.782 219.622 311.586 219.427 313.175Z" fill="#211E88"/>
<path d="M217.343 311.41C217.202 312.561 205.618 322.603 204.405 323.756C203.193 324.908 186.646 296.691 186.387 295.738C186.162 294.916 196.105 286.649 198.832 284.401C199.203 284.095 199.722 284.143 199.972 284.515C202.725 288.59 217.526 309.923 217.343 311.41Z" fill="#00B1FA"/>
<path d="M209.916 296.693C207.998 295.537 205.644 291.622 205.431 290.301C205.22 288.983 205.351 287.794 206.381 287.53C207.413 287.267 210.586 291.402 212.168 292.633C213.75 293.865 215.676 296.416 214.891 298.132C214.107 299.847 210.592 299.187 210.215 298.924C209.839 298.66 209.916 296.693 209.916 296.693Z" fill="#FFC6C8"/>
<path d="M205.789 287.878C205.181 289.379 209.142 295.399 212.616 297.133L211.325 298.608C211.325 298.608 210.739 298.479 209.986 298.301C209.882 297.633 209.917 296.693 209.917 296.693C207.999 295.537 205.645 291.622 205.432 290.303C205.272 289.302 205.313 288.382 205.789 287.878Z" fill="#FF8B8C"/>
<path d="M214.374 302.776C211.074 301.013 208.487 301.21 206.692 300.485C204.897 299.759 204.571 296.988 205.792 296.526C207.014 296.064 214.449 297.252 216.366 298.11C218.283 298.967 219.199 302.919 219.199 302.919L214.374 302.776Z" fill="#FFC6C8"/>
<path d="M212.93 300.72C214.797 301.072 215.438 300.72 215.438 300.72C215.384 301.449 216.073 301.812 216.848 302.849L214.374 302.776C211.076 301.013 208.488 301.211 206.693 300.485C205.874 300.154 205.378 299.397 205.178 298.628C205.977 300.148 211.074 300.37 212.93 300.72Z" fill="#FF8B8C"/>
<path d="M221.981 305.878C220.221 308.314 211.588 307.259 209.847 306.994C208.107 306.73 207.015 305.631 207.193 304.524C207.551 302.287 218.959 302.684 219.901 303.036C220.843 303.388 221.981 305.878 221.981 305.878Z" fill="#FFC6C8"/>
<path d="M207.256 305.062C208.435 306.234 211.271 306.902 214.365 307.152C217.045 307.368 218.585 307.264 218.941 307.233C215.687 307.751 211.071 307.179 209.849 306.995C208.395 306.775 207.443 305.966 207.256 305.062Z" fill="#FF8B8C"/>
<path d="M181.58 340.008C199.904 349.333 202.91 348.972 210.782 353.202C218.651 357.432 216.309 401.943 215.81 408.805C215.31 415.667 213.414 442.939 214.459 450.329C215.505 457.719 219.578 485.168 221.383 489.389C223.186 493.613 226.626 500.74 221.305 504.961C215.983 509.184 204.723 512.088 180.275 510.505C155.827 508.921 129.473 493.877 128.307 491.766C127.141 489.655 139.994 450.857 140.532 443.467C141.07 436.076 142.529 430.534 143.307 427.103C144.084 423.672 136.306 407.573 135.064 397.279C133.821 386.987 122.638 358.592 124.759 353.39C126.88 348.189 146.357 342.395 159.621 335.78C172.884 329.166 181.58 340.008 181.58 340.008Z" fill="#F9CA45"/>
<path d="M199.747 351.549C196.73 361.464 190.589 370.403 182.415 376.775C172.491 374.342 162.401 369.969 154.275 363.774C163.356 370.463 173.261 376.09 183.865 379.931C192.82 372.596 198.135 363.012 199.747 351.549Z" fill="#C7A237"/>
<path d="M196.006 346.83C192.486 345.328 187.964 343.257 181.579 340.008C181.579 340.008 172.884 329.166 159.621 335.781C155.018 338.075 149.669 340.271 144.555 342.378C152.456 355.82 165.258 366.335 180.035 371.336C187.827 365.199 193.431 356.407 196.006 346.83Z" fill="#FFC6C8"/>
<path opacity="0.2" d="M128.309 491.766C127.143 489.654 139.996 450.857 140.534 443.467C141.071 436.077 142.53 430.534 143.308 427.104C144.086 423.672 136.308 407.572 135.065 397.28C134.85 395.491 134.329 393.148 133.635 390.483L141.897 384.329C146.743 397.845 149.764 421.598 154.357 427.404C158.949 433.211 170.389 435.585 170.389 435.585C170.389 435.585 159.089 438.225 154.163 437.169C154.163 437.169 148.902 458.02 148.842 468.313C148.783 478.606 149.739 494.177 149.861 496.289C149.906 497.077 149.732 499.826 149.496 502.958C137.656 498.271 128.967 492.957 128.309 491.766Z" fill="black"/>
<path d="M161.702 317.031C161.513 328.044 160.786 335.609 158.346 337.722C158.346 337.722 162.543 355.997 179.298 354.436C184.968 353.908 184.427 344.407 181.581 340.009L183.267 326.501L161.702 317.031Z" fill="#FFC6C8"/>
<path d="M159.621 335.78C161.055 332.402 161.55 325.82 161.701 317.03L183.267 326.5L182.185 335.162C178.363 336.877 159.621 335.78 159.621 335.78Z" fill="#FF8B8C"/>
<path d="M102.315 406.103C98.6007 411.206 93.6323 423.874 95.4969 429.681C97.3616 435.488 116.594 461.352 125.39 471.029C134.188 480.706 136.183 482.29 137.713 485.457C139.242 488.625 146.736 501.688 148.704 503.669C150.671 505.647 154.215 505.912 154.215 505.912C154.215 505.912 156.864 508.814 161.938 508.287C161.938 508.287 166.358 511.322 169.863 512.113C169.863 512.113 171.02 514.355 172.193 514.553C173.366 514.753 174.858 512.378 172.697 507.627C170.536 502.876 166.985 500.897 166.414 497.862C165.843 494.827 163.096 488.634 163.096 488.634C163.096 488.634 169.264 494.958 173.062 495.354C176.861 495.751 177.371 493.507 175.286 491.659C173.202 489.812 170.5 487.041 167.988 483.477C165.476 479.914 162.35 477.54 157.516 476.88C152.681 476.22 149.289 475.693 148.036 474.769C146.784 473.845 140.462 464.872 136.142 455.194C131.822 445.516 127.952 433.15 116.973 422.291L121.811 413.845L102.315 406.103Z" fill="#FFC6C8"/>
<path d="M169.701 511.509C168.765 508.833 167.045 506.55 165.152 504.519L164.401 503.781C164.18 503.55 163.789 503.26 163.703 503.125C163.324 502.642 162.997 502.006 162.633 501.434C161.936 500.247 161.259 499.038 160.488 497.873C160.856 499.243 161.349 500.551 161.901 501.841C162.173 502.498 162.468 503.107 162.882 503.757C163.202 504.182 163.409 504.27 163.656 504.547L164.362 505.276C165.312 506.249 166.212 507.273 167.12 508.294C168.021 509.324 168.863 510.395 169.701 511.509Z" fill="#FF8B8C"/>
<path d="M161.733 507.373C161.006 505.952 160.143 504.72 159.373 503.426C158.567 502.148 157.852 500.866 157.118 499.456C157.039 501.117 157.651 502.681 158.46 504.024C159.305 505.358 160.381 506.532 161.733 507.373Z" fill="#FF8B8C"/>
<path d="M157.871 507.936C155.477 507.245 154.216 505.912 154.216 505.912C154.216 505.912 150.671 505.647 148.704 503.668C147.9 502.859 146.17 500.191 144.305 497.112C144.345 497.161 146.556 499.563 148.146 501.546C150.385 504.338 153.598 503.414 153.598 503.414L153.169 500.841C153.169 500.841 155.306 506.683 157.871 507.936Z" fill="#FF8B8C"/>
<path d="M95.415 423.229C95.5195 425.636 95.5481 427.551 99.1203 433.87C103.141 440.981 127.301 470.951 132.572 476.493C137.842 482.036 137.686 482.389 140.806 491.145C139.397 488.67 138.222 486.511 137.712 485.457C136.184 482.29 134.187 480.706 125.39 471.028C116.593 461.352 97.361 435.487 95.4964 429.68C94.9549 427.993 95.002 425.72 95.415 423.229Z" fill="#FF8B8C"/>
<path d="M114.353 416.302L112.391 419.574C112.391 419.574 115.046 420.292 116.973 422.29L120.803 415.791L114.353 416.302Z" fill="#FF8B8C"/>
<path d="M137.508 398.411C142.553 388.491 144.573 372.382 140.019 363.904C135.465 355.425 126.869 352.372 124.76 353.39C122.651 354.408 116.94 367.634 111.578 373.739C106.216 379.844 91.5736 396.97 91.1301 398.411C90.6857 399.853 101.713 411.487 122.454 420.031C124.923 421.049 137.508 398.411 137.508 398.411Z" fill="#F9CA45"/>
<g opacity="0.2">
<path d="M122.124 406.103L118.815 412.888C118.815 412.888 135.114 396.548 141.881 384.355C141.061 389.442 139.535 394.427 137.507 398.412C137.507 398.412 124.923 421.05 122.453 420.032C118.904 418.57 115.663 417.016 112.691 415.439L122.124 406.103Z" fill="black"/>
</g>
<path d="M184.513 318.016C183.392 313.476 183.416 308.833 183.146 304.19C182.943 300.718 182.767 297.541 179.616 295.464C177.313 293.947 174.426 293.649 171.717 293.992C164.435 294.916 162.869 302.012 163.426 308.73C163.853 313.872 165.862 318.81 167.857 323.54C165.179 323.422 161.523 322.018 159.924 319.79C160.642 322.722 162.003 325.417 164.129 327.491C156.369 327.357 149.166 322.28 145.055 315.46C140.946 308.642 139.643 300.315 140.081 292.29C140.6 282.765 143.57 273.217 149.461 265.884C161.31 251.135 184.139 249.415 198.04 262.09C202.819 266.447 206.286 272.289 208.02 278.624C210.299 286.951 210.252 295.885 208.476 304.309C207.741 307.796 207.404 310.816 207.058 314.308C206.951 315.391 205.638 327.963 206.397 327.917C201.495 328.215 195.863 327.225 192.543 323.478C194.031 326.052 195.316 328.531 196.805 331.104C190.615 330.075 186.066 324.307 184.513 318.016Z" fill="#A072AE"/>
<path d="M159.078 300.884C156.888 299.589 154.256 298.887 152.225 300.947C149.233 303.982 153.484 318.102 159.936 314.671C159.936 314.671 169.279 327.735 176.135 331.431C182.993 335.126 187.877 333.279 190.445 330.639C193.013 328 201.769 317.173 203.345 305.697C203.907 301.607 203.305 293.557 203.43 291.841C203.814 286.563 205.814 282.229 201.65 278.087C197.444 273.902 191.618 271.37 185.688 271.161C178.219 270.897 170.754 274.254 165.807 279.857C160.343 286.047 159.396 293.038 159.078 300.884Z" fill="#FFC6C8"/>
<path d="M153.285 304.806C153.843 302.219 156.05 301.71 157.691 303.512C159.373 305.36 159.656 311.212 159.224 312.074C158.791 312.936 155.901 312.875 155.353 311.088C154.806 309.302 156.489 308.182 158.113 308.712C158.113 308.712 158.568 306.104 157.239 304.425C155.911 302.746 154.528 303.389 154.189 303.82C153.849 304.251 153.285 304.806 153.285 304.806Z" fill="#FF8B8C"/>
<path d="M171.145 293.362C171.769 292.781 172.433 292.241 173.127 291.728C173.827 291.223 174.573 290.77 175.365 290.4C176.152 290.03 176.975 289.632 177.846 289.565C178.709 289.489 179.576 289.558 180.366 289.897L180.355 290.016C179.933 290.186 179.531 290.294 179.135 290.408L177.972 290.73C177.216 290.953 176.432 291.02 175.664 291.276C174.902 291.529 174.149 291.854 173.409 292.227C172.662 292.591 171.94 293.023 171.211 293.456L171.145 293.362Z" fill="#471052"/>
<path d="M200.333 290.4C199.626 290.025 198.878 289.753 198.1 289.589C197.327 289.415 196.535 289.328 195.74 289.308C194.941 289.291 194.147 289.455 193.358 289.449C192.563 289.452 191.764 289.476 190.89 289.388L190.865 289.274C191.613 288.732 192.464 288.439 193.323 288.272C194.189 288.097 195.056 288.24 195.891 288.365C196.732 288.488 197.55 288.705 198.317 289.024C199.079 289.353 199.803 289.761 200.406 290.302L200.333 290.4Z" fill="#471052"/>
<path d="M178.981 298.002C178.951 296.886 178.389 296.034 177.725 296.099C177.061 296.164 176.546 297.123 176.575 298.239C176.605 299.355 177.167 300.207 177.831 300.141C178.496 300.077 179.009 299.118 178.981 298.002Z" fill="#471052"/>
<path d="M196.608 296.592C196.579 295.475 196.115 294.613 195.572 294.667C195.029 294.721 194.613 295.669 194.642 296.785C194.671 297.901 195.136 298.763 195.678 298.709C196.221 298.656 196.638 297.708 196.608 296.592Z" fill="#471052"/>
<path d="M184.5 308.852C186.028 309.915 188.281 309.892 189.944 308.797C189.755 309.657 189.37 310.495 188.534 310.801C187.697 311.106 186.773 311.016 186.003 310.663C185.235 310.31 184.986 309.537 184.5 308.852Z" fill="#FF8B8C"/>
<path d="M178.383 315.401C182.064 315.46 190.915 314.781 193.801 314.371C192.663 318.1 189.679 321.784 185.511 321.786C181.76 321.789 179.282 318.705 178.383 315.401Z" fill="#C47E75"/>
<path d="M181.762 320.568C183.225 320.117 184.715 320.349 185.314 320.534C185.314 320.534 187.261 319.172 190.091 320.067C188.803 321.106 187.272 321.785 185.513 321.786C184.065 321.787 182.812 321.321 181.762 320.568Z" fill="#FF8485"/>
<path d="M191.303 317.491C187.576 318.653 183.508 318.318 179.999 317.053C179.975 316.503 179.933 315.948 179.891 315.393C183.529 315.316 189.419 314.875 192.573 314.523C192.301 315.554 191.892 316.563 191.303 317.491Z" fill="white"/>
<path d="M162.758 288.737C168.763 288.481 174.72 287.159 180.268 284.85C181.324 282.407 181.36 280.24 181.518 277.585C183.027 280.352 183.924 283.45 184.08 286.599C187.576 286.372 191.089 286.184 194.586 285.958C195.565 283.187 195.684 280.333 195.529 277.399C196.711 280.155 197.304 283.627 197.707 286.598C199.818 285.848 202.492 286.943 204.698 287.337C207.43 281.25 207.251 270.222 201.47 265.606C195.841 261.109 186.063 259.885 179.182 260.881C164.547 263 153.044 275.152 153.953 290.291C154.471 298.928 158.804 307.095 165.017 313.118C161.322 305.749 160.59 296.689 162.758 288.737Z" fill="#A072AE"/>
<path d="M596 195C586.61 195 579 202.61 579 212C579 217.067 581.215 221.618 584.736 224.737C587.741 227.387 591.683 229 596 229C600.324 229 604.266 227.387 607.264 224.73C610.785 221.618 613 217.067 613 212C613 202.61 605.39 195 596 195Z" fill="#CBD5FC"/>
<path d="M605.932 223.351C605.062 222.702 603.482 221.624 601.762 220.828C600.042 220.038 599.031 218.184 599.306 216.317C599.306 216.29 599.312 216.263 599.319 216.23C599.319 216.23 603.234 213.579 602.692 210.996C602.692 210.996 602.813 211.003 602.993 210.989C604.72 210.829 604.827 208.259 603.121 207.984C603.107 207.984 603.087 207.977 603.074 207.977L603.02 207.696C603.542 205.869 604.814 200.334 600.966 200.87C600.966 200.87 598.201 196.298 592.358 198.5C586.509 200.696 588.035 205.936 588.035 205.936L588.758 208.024C587.185 208.413 587.332 210.842 589.005 210.996C589.186 211.009 589.313 211.003 589.313 211.003C588.764 213.586 592.68 216.237 592.68 216.237C592.686 216.27 592.686 216.297 592.693 216.324C592.961 218.191 591.95 220.045 590.237 220.835C588.51 221.631 586.937 222.715 586.067 223.358C585.545 223.739 585.083 224.201 584.729 224.743C587.74 227.387 591.682 229 595.999 229C600.323 229 604.265 227.387 607.264 224.73C606.916 224.194 606.454 223.733 605.932 223.351Z" fill="#819FDE"/>
<path d="M388.5 20C375.519 20 365 30.5195 365 43.5C365 50.5037 368.062 56.7951 372.929 61.1065C377.083 64.7703 382.532 67 388.5 67C394.477 67 399.926 64.7703 404.071 61.0972C408.938 56.7951 412 50.5037 412 43.5C412 30.5195 401.481 20 388.5 20Z" fill="#CBD5FC"/>
<path d="M402.23 59.1913C401.027 58.2938 398.844 56.8043 396.466 55.7033C394.088 54.6116 392.691 52.0488 393.071 49.4675C393.071 49.4305 393.08 49.3934 393.089 49.3472C393.089 49.3472 398.502 45.6834 397.752 42.1121C397.752 42.1121 397.919 42.1214 398.169 42.1029C400.556 41.8808 400.704 38.3281 398.344 37.9488C398.326 37.9488 398.298 37.9395 398.28 37.9395L398.206 37.5509C398.927 35.0251 400.685 27.3738 395.365 28.1139C395.365 28.1139 391.544 21.7948 383.467 24.8387C375.381 27.8734 377.49 35.1177 377.49 35.1177L378.49 38.0043C376.315 38.5409 376.519 41.8994 378.832 42.1121C379.082 42.1307 379.258 42.1214 379.258 42.1214C378.499 45.6927 383.911 49.3564 383.911 49.3564C383.921 49.4027 383.921 49.4397 383.93 49.4767C384.3 52.058 382.903 54.6208 380.534 55.7125C378.147 56.8135 375.973 58.3123 374.77 59.2005C374.049 59.7279 373.41 60.3663 372.92 61.1157C377.083 64.7702 382.533 66.9999 388.5 66.9999C394.477 66.9999 399.926 64.7702 404.071 61.0972C403.59 60.357 402.952 59.7186 402.23 59.1913Z" fill="#819FDE"/>
<path d="M71 184C76.5236 184 81 188.476 81 194C81 196.98 79.6969 199.657 77.626 201.492C75.8583 203.051 73.5394 204 71 204C68.4567 204 66.1378 203.051 64.374 201.488C62.3032 199.657 61 196.98 61 194C61 188.476 65.4764 184 71 184Z" fill="#CBD5FC"/>
<path d="M65.1584 200.677C65.6702 200.295 66.5994 199.661 67.6112 199.193C68.623 198.728 69.2175 197.638 69.0561 196.539C69.0561 196.524 69.0521 196.508 69.0482 196.488C69.0482 196.488 66.745 194.929 67.0639 193.409C67.0639 193.409 66.9931 193.413 66.8868 193.405C65.871 193.311 65.808 191.799 66.812 191.638C66.8198 191.638 66.8316 191.634 66.8395 191.634L66.871 191.468C66.5639 190.394 65.8159 187.138 68.0797 187.453C68.0797 187.453 69.7057 184.764 73.1427 186.059C76.5836 187.35 75.686 190.433 75.686 190.433L75.2608 191.661C76.186 191.89 76.0994 193.319 75.1151 193.409C75.0088 193.417 74.934 193.413 74.934 193.413C75.2568 194.933 72.9537 196.492 72.9537 196.492C72.9498 196.512 72.9498 196.528 72.9458 196.543C72.7883 197.642 73.3828 198.732 74.3907 199.197C75.4065 199.665 76.3316 200.303 76.8435 200.681C77.1505 200.905 77.4222 201.177 77.6309 201.496C75.8592 203.051 73.5403 204 71.0009 204C68.4576 204 66.1387 203.051 64.375 201.488C64.5797 201.173 64.8513 200.902 65.1584 200.677Z" fill="#819FDE"/>
<path d="M179.5 531C168.177 531 159 540.177 159 551.5C159 557.61 161.671 563.098 165.917 566.859C169.541 570.055 174.294 572 179.5 572C184.714 572 189.468 570.055 193.083 566.851C197.329 563.098 200 557.61 200 551.5C200 540.177 190.823 531 179.5 531Z" fill="#CBD5FC"/>
<path d="M191.477 565.188C190.427 564.405 188.523 563.106 186.449 562.145C184.374 561.193 183.156 558.957 183.487 556.706C183.487 556.673 183.495 556.641 183.503 556.601C183.503 556.601 188.224 553.405 187.57 550.289C187.57 550.289 187.716 550.297 187.934 550.281C190.016 550.088 190.145 546.988 188.087 546.657C188.071 546.657 188.047 546.649 188.03 546.649L187.966 546.31C188.595 544.107 190.129 537.432 185.488 538.078C185.488 538.078 182.155 532.566 175.109 535.221C168.055 537.868 169.895 544.188 169.895 544.188L170.767 546.706C168.87 547.174 169.048 550.104 171.065 550.289C171.283 550.305 171.437 550.297 171.437 550.297C170.775 553.413 175.496 556.609 175.496 556.609C175.504 556.649 175.504 556.681 175.513 556.714C175.835 558.965 174.617 561.201 172.551 562.153C170.468 563.114 168.572 564.421 167.522 565.196C166.893 565.656 166.336 566.213 165.908 566.867C169.54 570.055 174.294 572 179.5 572C184.713 572 189.467 570.055 193.083 566.851C192.663 566.205 192.106 565.648 191.477 565.188Z" fill="#819FDE"/>
<circle opacity="0.4" cx="382" cy="341" r="297.5" stroke="#8A8FB9"/>
<circle opacity="0.4" cx="381.5" cy="341.5" r="287" stroke="#8A8FB9"/>
<circle cx="674.5" cy="397.5" r="5.5" fill="#819FDE"/>
<circle cx="486.5" cy="572.5" r="5.5" fill="#819FDE"/>
<circle opacity="0.75" cx="382" cy="341" r="252.5" stroke="#CBD5FC"/>
<circle opacity="0.75" cx="388.5" cy="341.5" r="199" stroke="#CBD5FC"/>
<circle cx="635" cy="363" r="9" fill="#819FDE"/>
<circle cx="238" cy="97" r="9" fill="#819FDE"/>
<circle cx="398" cy="683" r="9" fill="#819FDE"/>
<circle cx="40" cy="332" r="9" fill="#819FDE"/>
<path d="M365 567H304V597.806H347.471L343.966 610L365 597.806V567Z" fill="#819FDE"/>
<path d="M573 115H551V127.179H566.678L565.414 132L573 127.179V115Z" fill="#819FDE"/>
<circle cx="381.5" cy="341.5" r="341" stroke="#CBD5FC"/>
<circle cx="283" cy="172" r="3" fill="#819FDE"/>
</svg>
