<svg width="105" height="31" viewBox="0 0 105 31" fill="none" xmlns="http://www.w3.org/2000/svg">
<path d="M24.132 2.032V30H18.622V18.638H6.12V30H0.61V2.032H6.12V13.318H18.622V2.032H24.132ZM38.6326 30.456C36.6059 30.456 34.8832 30.076 33.4646 29.316C32.0712 28.556 31.0072 27.5047 30.2726 26.162C29.5379 24.8193 29.1706 23.274 29.1706 21.526C29.1706 19.854 29.6012 18.3467 30.4626 17.004C31.3239 15.6613 32.4766 14.5973 33.9206 13.812C35.3646 13.0013 36.9732 12.596 38.7466 12.596C41.1279 12.596 43.0786 13.2927 44.5986 14.686C46.1439 16.054 47.1446 18.0427 47.6006 20.652L35.4406 24.528C36.2512 25.4653 37.3532 25.934 38.7466 25.934C39.3292 25.934 39.8866 25.8327 40.4186 25.63C40.9759 25.4273 41.5206 25.1613 42.0526 24.832L44.4086 28.784C43.5219 29.2907 42.5592 29.696 41.5206 30C40.5072 30.304 39.5446 30.456 38.6326 30.456ZM34.4146 21.222C34.4146 21.3487 34.4146 21.4627 34.4146 21.564L41.7106 19.094C41.4826 18.4607 41.1152 17.916 40.6086 17.46C40.1019 16.9787 39.3419 16.738 38.3286 16.738C37.1379 16.738 36.1879 17.1433 35.4786 17.954C34.7692 18.7647 34.4146 19.854 34.4146 21.222ZM51.4665 30V0.0179987H56.7865V18.79L64.6905 12.976L67.9205 15.826L62.0305 20.272L68.5285 30H62.3345L58.2685 23.084L56.7865 24.186V30H51.4665ZM73.7686 6.098H79.0886V13.318H83.1166V17.46H79.0886V30H73.7686V17.46H71.1846V13.318H73.7686V6.098ZM85.8737 21.488C85.8737 19.7907 86.2664 18.2707 87.0517 16.928C87.8624 15.5853 88.9897 14.534 90.4337 13.774C91.8777 12.9887 93.537 12.596 95.4117 12.596C97.3117 12.596 98.9584 12.9887 100.352 13.774C101.745 14.534 102.809 15.5853 103.544 16.928C104.304 18.2707 104.684 19.7907 104.684 21.488C104.684 23.1853 104.304 24.718 103.544 26.086C102.809 27.4287 101.745 28.4927 100.352 29.278C98.9584 30.0633 97.2864 30.456 95.3357 30.456C93.5117 30.456 91.8777 30.1013 90.4337 29.392C89.015 28.6827 87.9004 27.6567 87.0897 26.314C86.279 24.9713 85.8737 23.3627 85.8737 21.488ZM91.2317 21.526C91.2317 22.8433 91.6117 23.9453 92.3717 24.832C93.1317 25.6933 94.0944 26.124 95.2597 26.124C96.501 26.124 97.489 25.6933 98.2237 24.832C98.9584 23.9453 99.3257 22.8433 99.3257 21.526C99.3257 20.2087 98.9584 19.1193 98.2237 18.258C97.489 17.3713 96.501 16.928 95.2597 16.928C94.0944 16.928 93.1317 17.3713 92.3717 18.258C91.6117 19.1193 91.2317 20.2087 91.2317 21.526Z" fill="black"/>
</svg>
