<svg width="70" height="70" viewBox="0 0 70 70" fill="none" xmlns="http://www.w3.org/2000/svg">
<path d="M46.0746 67.4142V8.34504C46.0746 6.91687 44.9169 5.75928 43.4887 5.75928H7.3758C5.94764 5.75928 4.79004 6.91701 4.79004 8.34504V67.4142C4.79004 68.8424 5.94777 70 7.3758 70H43.4888C44.9169 70 46.0746 68.8423 46.0746 67.4142Z" fill="#FB2E86"/>
<path d="M51.9667 5.75909H43.3125C44.7407 5.75909 45.8984 6.91683 45.8984 8.34486V67.4141C45.8984 68.8422 44.7407 69.9998 43.3125 69.9998H51.9667C53.3948 69.9998 54.5526 68.8421 54.5526 67.4141V8.34499C54.5526 6.91683 53.3948 5.75909 51.9667 5.75909Z" fill="#FB2E86"/>
<path d="M9.0166 64.8493V10.9099C9.0166 10.3994 9.43045 9.98566 9.94082 9.98566H49.4022C49.9127 9.98566 50.3264 10.3995 50.3264 10.9099V64.8493C50.3264 65.3598 49.9126 65.7735 49.4022 65.7735H9.94082C9.43031 65.7735 9.0166 65.3598 9.0166 64.8493Z" fill="#F5F5F5"/>
<path d="M49.4022 9.98566H40.748C41.2586 9.98566 41.6723 10.3995 41.6723 10.9099V64.8493C41.6723 65.3598 41.2584 65.7735 40.748 65.7735H49.4022C49.9127 65.7735 50.3264 65.3596 50.3264 64.8493V10.9099C50.3264 10.3995 49.9127 9.98566 49.4022 9.98566Z" fill="#EAEAEA"/>
<path d="M35.1645 3.21809V1.85678C35.1645 0.831387 34.3333 0 33.3077 0H26.0347C25.0092 0 24.1779 0.831387 24.1779 1.85678V3.21809C24.1779 3.6374 23.8379 3.97742 23.4186 3.97742H20.3916C19.3847 3.97742 18.5684 4.79377 18.5684 5.8007V9.98566H40.7741V5.8007C40.7741 4.79377 39.9577 3.97742 38.9508 3.97742H35.9238C35.5045 3.97742 35.1645 3.6374 35.1645 3.21809Z" fill="#C2D0DA"/>
<path d="M14.3926 24.9911V16.8511C14.3926 15.9493 15.1238 15.2181 16.0255 15.2181H24.1655C25.0673 15.2181 25.7985 15.9493 25.7985 16.8511V24.9911C25.7985 25.8929 25.0673 26.624 24.1655 26.624H16.0255C15.1236 26.624 14.3926 25.8929 14.3926 24.9911Z" fill="#FB2E86"/>
<path d="M14.3926 41.9497V33.8097C14.3926 32.9079 15.1238 32.1768 16.0255 32.1768H24.1655C25.0673 32.1768 25.7985 32.9079 25.7985 33.8097V41.9497C25.7985 42.8515 25.0673 43.5827 24.1655 43.5827H16.0255C15.1236 43.5827 14.3926 42.8515 14.3926 41.9497Z" fill="#FB2E86"/>
<path d="M14.3926 58.9081V50.7682C14.3926 49.8664 15.1238 49.1352 16.0255 49.1352H24.1655C25.0673 49.1352 25.7985 49.8664 25.7985 50.7682V58.9081C25.7985 59.8099 25.0673 60.5411 24.1655 60.5411H16.0255C15.1236 60.5411 14.3926 59.8101 14.3926 58.9081Z" fill="#FB2E86"/>
<path d="M19.407 23.8361C19.4058 23.8361 19.4047 23.8361 19.4035 23.8361C18.9371 23.835 18.4948 23.6091 18.2202 23.2322L16.9867 21.5383C16.6432 21.0666 16.7471 20.4058 17.2188 20.0624C17.6905 19.7191 18.3513 19.823 18.6946 20.2945L19.4097 21.2769L21.5009 18.4358C21.8468 17.9659 22.5079 17.8656 22.9777 18.2114C23.4476 18.5571 23.5481 19.2184 23.2022 19.6883L20.5892 23.2382C20.3137 23.6127 19.8719 23.8361 19.407 23.8361Z" fill="#F6F9F9"/>
<path d="M19.4069 41.1636C19.4055 41.1636 19.4043 41.1636 19.403 41.1636C18.9367 41.1624 18.4944 40.9367 18.2199 40.5595L16.9867 38.8658C16.6432 38.3941 16.7471 37.7334 17.2188 37.3899C17.6905 37.0466 18.3513 37.1505 18.6946 37.6221L19.4097 38.6044L21.5009 35.7634C21.8468 35.2936 22.5079 35.1931 22.9777 35.5389C23.4476 35.8847 23.5481 36.546 23.2022 37.0159L20.5892 40.5658C20.3137 40.9405 19.8719 41.1636 19.4069 41.1636Z" fill="#F6F9F9"/>
<path d="M19.4068 57.7534C19.4056 57.7534 19.4044 57.7534 19.4033 57.7533C18.9371 57.7522 18.4946 57.5265 18.2201 57.1497L16.9866 55.4555C16.6432 54.9838 16.7472 54.3232 17.2189 53.9797C17.6909 53.6363 18.3514 53.7405 18.6947 54.212L19.4097 55.1942L21.5009 52.3532C21.8468 51.8834 22.508 51.7829 22.9778 52.1287C23.4477 52.4744 23.5482 53.1357 23.2023 53.6057L20.5893 57.1556C20.3135 57.53 19.8718 57.7534 19.4068 57.7534Z" fill="#F6F9F9"/>
<path d="M44.1179 19.7702H31.0592C30.4758 19.7702 30.0029 19.2973 30.0029 18.7139C30.0029 18.1306 30.4758 17.6577 31.0592 17.6577H44.1179C44.7013 17.6577 45.1742 18.1306 45.1742 18.7139C45.1742 19.2973 44.7013 19.7702 44.1179 19.7702Z" fill="#DDEAFB"/>
<path d="M37.5875 24.1845H31.0582C30.4749 24.1845 30.002 23.7116 30.002 23.1282C30.002 22.5448 30.4749 22.0719 31.0582 22.0719H37.5875C38.1709 22.0719 38.6438 22.5448 38.6438 23.1282C38.6438 23.7116 38.1709 24.1845 37.5875 24.1845Z" fill="#DDEAFB"/>
<path d="M39.82 36.7288H31.0582C30.4749 36.7288 30.002 36.2559 30.002 35.6725C30.002 35.0891 30.4749 34.6162 31.0582 34.6162H39.82C40.4034 34.6162 40.8763 35.0891 40.8763 35.6725C40.8763 36.2559 40.4034 36.7288 39.82 36.7288Z" fill="#DDEAFB"/>
<path d="M37.5875 41.143H31.0582C30.4749 41.143 30.002 40.6701 30.002 40.0867C30.002 39.5034 30.4749 39.0305 31.0582 39.0305H37.5875C38.1709 39.0305 38.6438 39.5034 38.6438 40.0867C38.6438 40.6701 38.1709 41.143 37.5875 41.143Z" fill="#DDEAFB"/>
<path d="M61.0996 27.5786L60.0625 26.2123L56.1817 23.7547L54.69 23.5197L34.8186 54.9203C34.3391 55.6775 33.9873 56.5083 33.7773 57.3795C36.1951 57.4094 38.3896 58.799 39.4504 60.9719C40.1482 60.4096 40.7488 59.7364 41.2282 58.9792L61.0996 27.5786Z" fill="#FC8086"/>
<path d="M63.9052 17.9091L62.2283 16.8472C60.9212 16.0193 59.1903 16.4083 58.3629 17.7158L56.8252 20.1457L57.3157 21.1345L61.982 24.0894L63.235 24.2046L64.7736 21.7732C65.6005 20.4664 65.2118 18.7365 63.9052 17.9091Z" fill="#8C9BA6"/>
<path d="M54.6924 23.5107L56.8286 20.1368L63.2394 24.1957L61.1032 27.5697L54.6924 23.5107Z" fill="#C9E2E7"/>
<path d="M39.4508 60.9721L33.7927 65.5316C32.9945 66.1749 31.8349 65.4406 32.0751 64.444L33.7778 57.3796C36.1955 57.4094 38.3901 58.7992 39.4508 60.9721Z" fill="#7C8B96"/>
<path d="M37.9665 59.0145L58.7968 26.1202L57.012 24.99L36.1816 57.8843C36.8352 58.1596 37.4381 58.5415 37.9665 59.0145Z" fill="#FB636F"/>
</svg>
