<svg width="94" height="94" viewBox="0 0 94 94" fill="none" xmlns="http://www.w3.org/2000/svg">
<path d="M94 47C94 46.429 93.9897 45.8602 93.9697 45.2942C93.0717 20.127 72.3864 0 47 0C21.6136 0 0.92825 20.127 0.0304766 45.2942C0.0102812 45.8602 0 46.429 0 47C0 72.9574 24.1429 92.2944 47 92.2944C70.2712 92.2944 94 72.9574 94 47Z" fill="#395093"/>
<path d="M47 90.5886C21.6139 90.5886 0.932289 70.461 0.0341484 45.2942C0.0137695 45.8608 0 46.4286 0 47C0 72.9574 21.0426 94 47 94C72.9574 94 94 72.9574 94 47C94 46.4286 93.9862 45.8608 93.966 45.2944C93.0677 70.4612 72.3861 90.5886 47 90.5886Z" fill="#3D559D"/>
<path d="M86.1823 45.2943C85.2893 24.4257 68.0884 7.78113 46.9999 7.78113C25.9114 7.78113 8.71053 24.4257 7.81753 45.2943C7.79329 45.8599 7.81734 83.7243 46.9999 83.7243C86.1825 83.7243 86.2065 45.8599 86.1823 45.2943Z" fill="white"/>
<path d="M47.0002 82.8075C25.9119 82.8075 8.71372 66.1626 7.82036 45.2942C7.79612 45.86 7.78125 46.4281 7.78125 46.9998C7.78125 68.6598 25.3402 86.2187 47.0002 86.2187C68.6602 86.2187 86.2191 68.66 86.2191 47C86.2191 46.4282 86.2041 45.86 86.18 45.2944C85.2866 66.1627 68.0885 82.8075 47.0002 82.8075Z" fill="#D5E0F2"/>
<path d="M61.2455 33.2396C60.1276 32.1372 58.3277 32.1495 57.2254 33.2672L50.5547 40.0302L51.225 43.2499L54.3409 44.2879L61.2733 37.2598C62.3755 36.1421 62.3632 34.3421 61.2455 33.2396Z" fill="#405B6C"/>
<path d="M42.9757 40.2892L27.8472 26.8075C26.675 25.7629 24.8782 25.8664 23.8337 27.0387C22.7892 28.2107 22.8926 30.0078 24.0648 31.0522L39.4913 44.7994L42.7059 43.7272L42.9757 40.2892Z" fill="#405B6C"/>
<path d="M67.1285 65.3295C66.8057 65.3295 66.4815 65.2203 66.2149 64.9965L48.2093 49.8724C47.6084 49.3675 47.5302 48.4708 48.0351 47.8699C48.54 47.2687 49.4365 47.1906 50.0377 47.6957L68.0433 62.82C68.6442 63.3248 68.7224 64.2215 68.2175 64.8224C67.9365 65.1571 67.5338 65.3295 67.1285 65.3295Z" fill="#86DCFF"/>
<path d="M39.4912 44.7992L42.146 47.165L45.5553 46.0065L45.3704 42.423L42.9758 40.2891C41.3097 41.2902 40.0486 42.8943 39.4912 44.7992Z" fill="#2D4456"/>
<path d="M50.555 40.0304L48.2979 42.3187V46.8105H51.8533L54.3414 44.2881C53.6577 42.4382 52.2941 40.9194 50.555 40.0304Z" fill="#2D4456"/>
<path d="M51.5496 45.2941C50.8589 43.4526 49.0822 42.142 46.9996 42.142C44.9169 42.142 43.1402 43.4526 42.4496 45.2941C42.2505 45.8249 42.4363 50.1524 46.9996 50.1524C51.5628 50.1524 51.7486 45.8249 51.5496 45.2941Z" fill="#395093"/>
<path d="M46.9997 48.4467C44.917 48.4467 43.1411 47.1359 42.4504 45.2944C42.2512 45.8252 42.1416 46.3997 42.1416 47C42.1416 49.6831 44.3166 51.8579 46.9995 51.8579C49.6825 51.8579 51.8574 49.6829 51.8574 47C51.8574 46.3997 51.7478 45.8252 51.5488 45.2944C50.8583 47.1357 49.0824 48.4467 46.9997 48.4467Z" fill="#3D559D"/>
<path d="M48.4235 17.1795V12.7683C48.4235 11.9817 47.7859 11.3441 46.9993 11.3441C46.2128 11.3441 45.5752 11.9817 45.5752 12.7683V17.1795C45.5752 17.966 46.2126 18.6036 46.9993 18.6036C47.786 18.6036 48.4235 17.966 48.4235 17.1795Z" fill="#405B6C"/>
<path d="M45.5752 76.8206V81.2318C45.5752 82.0183 46.2126 82.656 46.9993 82.656C47.786 82.656 48.4235 82.0183 48.4235 81.2318V76.8206C48.4235 76.0341 47.7859 75.3965 46.9993 75.3965C46.2128 75.3965 45.5752 76.0341 45.5752 76.8206Z" fill="#405B6C"/>
<path d="M81.2318 48.4242C82.0185 48.4242 82.656 47.7866 82.656 47.0001C82.656 46.2136 82.0183 45.5759 81.2318 45.5759H76.8206C76.0341 45.5759 75.3965 46.2136 75.3965 47.0001C75.3965 47.7866 76.0341 48.4242 76.8206 48.4242H81.2318Z" fill="#405B6C"/>
<path d="M12.7679 45.5759C11.9812 45.5759 11.3438 46.2136 11.3438 47.0001C11.3438 47.7866 11.9812 48.4242 12.7679 48.4242H17.1791C17.9658 48.4242 18.6032 47.7866 18.6032 47.0001C18.6032 46.2136 17.9656 45.5759 17.1791 45.5759H12.7679Z" fill="#405B6C"/>
</svg>
